<svg xmlns="http://www.w3.org/2000/svg" width="42.16" height="45.171" viewBox="0 0 42.16 45.171"><defs><style>.a{fill:#d0ddf0;}.b{fill:#a0bef3;}.c{fill:#7fa8f6;}.d{fill:#dfe3ee;}.e{fill:#fff;}.f{fill:#428dff;}</style></defs><g transform="translate(0 0)"><path class="a" d="M66.814,358.41s-.616,3.081.381,4.783a.376.376,0,0,0,.646-.009,6.88,6.88,0,0,1,1.939-2.259" transform="translate(-60.791 -326.789)"/><path class="a" d="M31.814,13.75S29.676,10.187,17.081,9.3a.377.377,0,0,0-.287.645,21.892,21.892,0,0,1,5.987,10.58" transform="translate(-15.252 -8.479)"/><path class="b" d="M302.359,229.926c1.649.549,2.746,2.354,3.219,3.288a.377.377,0,0,0,.678-.014c.918-1.807.245-5.2.245-5.2l-2.965-1.318Zm0,0" transform="translate(-275.727 -206.681)"/><path class="c" d="M271.488,57.6c-.03.248-.06.5-.1.745a14.045,14.045,0,0,1-.3,1.461,12.839,12.839,0,0,1-.467,1.408,9.311,9.311,0,0,1-3.327,4.329,14.428,14.428,0,0,1-7.115,2.146,22.126,22.126,0,0,1-2.552.03l-.165-.008q.237,0,.474-.023a14.428,14.428,0,0,0,7.115-2.146,9.314,9.314,0,0,0,3.328-4.329,12.851,12.851,0,0,0,.467-1.408,13.958,13.958,0,0,0,.3-1.461c.038-.248.068-.5.1-.745a.383.383,0,0,0-.06-.256c-.6-.873-4.841-6.347-16.871-6.693,13.747-.331,18.467,5.759,19.115,6.693a.383.383,0,0,1,.06.256Zm0,0" transform="translate(-230.096 -46.167)"/><path class="d" d="M75.29,57.73c-.03.248-.06.5-.1.745a13.966,13.966,0,0,1-.3,1.461,12.853,12.853,0,0,1-.467,1.408A9.314,9.314,0,0,1,71.1,65.673a14.428,14.428,0,0,1-7.115,2.146q-.237.023-.474.023l-5.135-.151h-.03c-.248.008-.5.022-.753.045a10.4,10.4,0,0,0-3.892.994c-2.71,1.34-4.223,5.127-2.846,7.807a4.353,4.353,0,0,0,1.234,1.491c.151.12.3.233.467.346.256.173.519.339.791.512.151.09.308.188.459.286a.383.383,0,0,0,.3.045,23.453,23.453,0,0,1,5.511-.738c1.137-.03,2.432-.015,3.885.09a.376.376,0,0,1,.188.693c-2.078,1.28-6.414,4.69-5.842,10.517a.376.376,0,0,1-.625.324,13.611,13.611,0,0,1-1.656-1.844,14.72,14.72,0,0,1-2.6-5.782c-.105-.015-.189-.03-.256-.038-2.56-.362-5.278-.73-7.574-2a8.385,8.385,0,0,1-1.039-.662,11.329,11.329,0,0,1-3.433-4.322c-2.258-4.9-.595-10.947,1.844-15.4a18.875,18.875,0,0,1,2.582-3.621,17.393,17.393,0,0,1,12.136-5.616c.376-.015.745-.03,1.114-.038h.023c12.03.346,16.269,5.82,16.871,6.693a.384.384,0,0,1,.06.256Zm0,0" transform="translate(-36.142 -46.301)"/><path class="d" d="M201.752,364.474a23.451,23.451,0,0,0-5.511.738.383.383,0,0,1-.3-.045c-.151-.1-.308-.2-.459-.286A30.047,30.047,0,0,1,201.752,364.474Zm0,0" transform="translate(-178.278 -332.296)"/><path class="d" d="M249.523,242.592c-.678.045-1.378.03-2.078.008l-3.84-.113c.248-.023.5-.038.753-.045h.03Zm0,0" transform="translate(-222.157 -221.051)"/><path class="d" d="M250.057,214.2c.018,1.243-.347,5.131-5.128,8.733a.377.377,0,0,1-.6-.391c.457-1.721,1.066-5.195-.626-7.474a.376.376,0,0,1,.256-.6l5.679-.631a.377.377,0,0,1,.421.359Zm0,0" transform="translate(-222.177 -194.974)"/><g transform="translate(1.426 0.821)"><path class="e" d="M361.9,95.38a1.506,1.506,0,1,1-1.506-1.506A1.506,1.506,0,0,1,361.9,95.38Zm0,0" transform="translate(-328.697 -86.413)"/><path class="e" d="M361.1,95.33a.753.753,0,0,1-1.438.308,1.524,1.524,0,0,1,.994-.994A.752.752,0,0,1,361.1,95.33Zm0,0" transform="translate(-329.399 -87.115)"/><path class="e" d="M22.737,20.416A18.865,18.865,0,0,0,21.6,22.235c-2.439,4.449-4.1,10.495-1.844,15.4A12.038,12.038,0,0,0,21.378,40.2l-.12-.1s-.616,3.081.381,4.783a.376.376,0,0,0,.646-.009,9.51,9.51,0,0,1,1.12-1.555,11.075,11.075,0,0,1,.111-3.219l.12.1a12.036,12.036,0,0,1-1.625-2.571c-2.259-4.9-.595-10.947,1.844-15.4A18.862,18.862,0,0,1,25,20.416a21.921,21.921,0,0,0-5.959-10.47A.361.361,0,0,1,19,9.467c-.618-.062-1.26-.119-1.936-.166a.377.377,0,0,0-.287.645,21.923,21.923,0,0,1,5.96,10.47Zm0,0" transform="translate(-16.662 -9.299)"/><path class="e" d="M210.035,51.46l-.117.088a18.045,18.045,0,0,1,4.635-.841c.339-.013.671-.026,1-.034-.685-.017-1.39-.022-2.125,0h-.023c-.369.008-.738.023-1.114.038a18.34,18.34,0,0,0-2.625.334,2.417,2.417,0,0,1,.367.416Zm0,0" transform="translate(-192.64 -47.009)"/><path class="e" d="M32.245,167.882a13.274,13.274,0,0,1-1.129-5.038,18.583,18.583,0,0,1,.608-5.05,26.124,26.124,0,0,1,2.387-5.986l1.321.724a24.6,24.6,0,0,0-2.247,5.633,17.1,17.1,0,0,0-.562,4.635,11.747,11.747,0,0,0,.989,4.45Zm0,0" transform="translate(-29.838 -139.235)"/></g><path class="f" d="M368.931,103.162a.753.753,0,1,1-.753-.753A.753.753,0,0,1,368.931,103.162Zm0,0" transform="translate(-335.053 -93.375)"/><path class="f" d="M31.727,256.759a.477.477,0,0,0,.135.045,1.051,1.051,0,0,0,.151.014.829.829,0,0,0,.537-.212.728.728,0,0,0,.161-.235.762.762,0,0,0-.114-.8.807.807,0,0,0-.236-.174.735.735,0,0,0-.828.09.768.768,0,0,0-.05,1.1l.112.094A.557.557,0,0,0,31.727,256.759Zm0,0" transform="translate(-28.557 -232.788)"/><path class="f" d="M7.181,11.8c-.351.517-.684,1.046-.984,1.593a26.117,26.117,0,0,0-2.389,5.986l-.184.757a.753.753,0,0,0,1.472.319l.171-.705a24.6,24.6,0,0,1,2.249-5.633c.27-.491.568-.966.882-1.43a.744.744,0,0,0,.366-.527,18.3,18.3,0,0,1,1.229-1.516A16.729,16.729,0,0,1,21.612,5.27c13.677-.656,18.671,5.091,19.512,6.221q-.034.284-.075.567c-.063.4-.157.841-.273,1.289a10.594,10.594,0,0,0-3.39-.548.753.753,0,0,0,0,1.506,9.067,9.067,0,0,1,2.924.476,8.563,8.563,0,0,1-3.042,3.97,13.423,13.423,0,0,1-6.749,2.015c-.519.042-1.044.051-1.532.048a7.047,7.047,0,0,0,.11-2.1.753.753,0,0,0-1.491.214c.007.043.5,3.922-3.979,7.76.428-2.188.607-5.52-1.519-7.646a.753.753,0,0,0-1.065,1.065,3.935,3.935,0,0,1,.495.618,10.919,10.919,0,0,0-3.82,1.028,7.219,7.219,0,0,0-3.75,5.586,6.007,6.007,0,0,0,.151,2.123,6,6,0,0,1-1.9-2.566c-.563-1.589-.236-3.415.972-5.428,4.216-7.031,13.506-6.42,13.6-6.41a.755.755,0,0,0,.114-1.506c-.42-.03-10.305-.7-15.008,7.139-1.451,2.418-1.82,4.674-1.1,6.706,1.121,3.162,4.5,4.632,5.144,4.887.012.01.022.022.035.032a14.55,14.55,0,0,0,1.272.862c.212.133.425.267.637.407.01.007.021.009.031.015a.678.678,0,0,0,.075.035.73.73,0,0,0,.175.057.7.7,0,0,0,.081.012c.018,0,.035.008.053.008a.759.759,0,0,0,.2-.029h.011a25.946,25.946,0,0,1,8.211-.729c-2.2,1.6-5.371,4.753-5.327,9.6a13.88,13.88,0,0,1-3.343-6.529c0-.006-.005-.011-.007-.017q-.055-.136-.122-.267c-.068-.068-.139-.134-.211-.2a2.845,2.845,0,0,0-.277-.1s-.008,0-.013,0l-.1-.016c-.068-.011-.126-.02-.151-.022l-.114-.017a20.8,20.8,0,0,1-7.206-1.9,7.521,7.521,0,0,1-.949-.6,10.649,10.649,0,0,1-3.2-4.035,12.06,12.06,0,0,1-.821-2.683.753.753,0,0,0-1.485.253,13.576,13.576,0,0,0,.938,3.061A12.872,12.872,0,0,0,5.723,31.79c-.167,1.045-.5,4.113,1.016,5.63a.752.752,0,0,0,.533.223.738.738,0,0,0,.12-.01.753.753,0,0,0,.553-.406,8.333,8.333,0,0,1,1.614-2.216,22.866,22.866,0,0,0,7.146,1.836,14.526,14.526,0,0,0,5.2,8.193.753.753,0,0,0,1.165-.753c-1.38-7.6,6.032-11.086,6.348-11.229a.753.753,0,0,0-.237-1.43,30.941,30.941,0,0,0-10.755.521c-.126-.08-.251-.162-.377-.242a13.2,13.2,0,0,1-1.14-.774,3.978,3.978,0,0,1-1.441-3.639A5.663,5.663,0,0,1,18.39,23.1a9.917,9.917,0,0,1,3.777-.917,12.283,12.283,0,0,1-.542,6.161.753.753,0,0,0,1.123.89A15.51,15.51,0,0,0,27.706,24.2a5.353,5.353,0,0,1,2.175,3.087.751.751,0,0,0,1.261.351c1.478-1.478,1.2-4.422,1.029-5.54a13.525,13.525,0,0,0,5.951-2.108,11.1,11.1,0,0,0,4.411-7.7q.071-.46.118-.919a.754.754,0,0,0-.1-.465C42.355,10.582,37.612,3,21.54,3.764a18.783,18.783,0,0,0-4.186.678C16.31,3.332,12.638.632,1.291,0A.764.764,0,0,0,.545.484a.753.753,0,0,0,.234.857A21.182,21.182,0,0,1,7.181,11.8Zm.106,23.585a6.992,6.992,0,0,1-.194-2.067,10.53,10.53,0,0,0,.9.753c.071.053.147.1.22.151a8.7,8.7,0,0,0-.93,1.164Zm23.39-10.122a5.572,5.572,0,0,0-2.3-2.409c.075-.182.146-.362.208-.535q.273.006.568.006c.475,0,.979-.013,1.488-.054h.034a9.515,9.515,0,0,1,0,2.992ZM15.684,5a18.055,18.055,0,0,0-6.8,4.632c-.194.212-.377.433-.56.654A22.728,22.728,0,0,0,3.281,1.65c7.75.665,11.1,2.384,12.4,3.346Zm0,0" transform="translate(-0.496 0.001)"/><path class="f" d="M331.275,149.674a.752.752,0,0,0-1.017.316,3.6,3.6,0,0,0,.164,4.007,4.682,4.682,0,0,0,1.488,1.325.753.753,0,0,0,.705-1.33,2.355,2.355,0,0,1-1.025-3.3.753.753,0,0,0-.315-1.021Zm0,0" transform="translate(-300.68 -136.39)"/><path class="f" d="M363.027,143.886a4.681,4.681,0,0,0,1.488,1.325.74.74,0,0,0,.348.087.753.753,0,0,0,.356-1.417,2.353,2.353,0,0,1-1.025-3.3.753.753,0,1,0-1.333-.7,3.6,3.6,0,0,0,.164,4.007Zm0,0" transform="translate(-330.409 -127.172)"/></g></svg>