<?xml version="1.0" standalone="no"?>
<!DOCTYPE svg PUBLIC "-//W3C//DTD SVG 20010904//EN"
 "http://www.w3.org/TR/2001/REC-SVG-20010904/DTD/svg10.dtd">
<svg version="1.0" xmlns="http://www.w3.org/2000/svg"
 width="960.000000pt" height="692.000000pt" viewBox="0 0 960.000000 692.000000"
 preserveAspectRatio="xMidYMid meet">

<g transform="translate(0.000000,692.000000) scale(0.100000,-0.100000)"
fill="#000000" stroke="none">
<path d="M4806 6758 c-3 -7 -7 -69 -10 -138 -6 -144 -35 -275 -90 -401 -53
-124 -93 -184 -189 -284 -151 -160 -331 -264 -677 -393 -496 -185 -896 -370
-1125 -519 -274 -179 -419 -323 -622 -619 -129 -188 -135 -194 -218 -204 -38
-5 -103 -9 -142 -10 -66 0 -89 -9 -64 -24 23 -14 41 -218 30 -335 -10 -112
-34 -204 -115 -453 -35 -108 -80 -259 -99 -335 -56 -218 -73 -268 -99 -292
l-24 -22 -153 146 c-104 99 -190 171 -264 220 -130 87 -278 167 -361 195 -117
41 -405 111 -442 108 -35 -3 -28 -7 118 -82 417 -212 724 -478 962 -836 181
-271 349 -713 438 -1149 49 -242 92 -632 111 -1001 6 -124 13 -227 15 -229 1
-2 6 10 9 25 3 16 10 49 15 74 18 83 50 394 56 545 7 172 -9 550 -31 740 -9
72 -31 240 -50 375 -44 308 -57 448 -48 518 6 51 11 61 76 129 75 79 149 122
246 145 66 15 129 -3 225 -67 38 -25 72 -43 75 -39 3 3 8 65 11 138 6 145 21
189 72 214 39 18 190 25 303 14 99 -11 100 -11 135 -50 48 -54 94 -134 142
-244 61 -142 78 -221 86 -403 l7 -160 22 43 c56 106 199 613 228 807 9 61 22
152 29 203 8 51 19 99 26 107 10 13 57 15 294 15 154 0 391 -5 526 -10 267
-11 1412 -33 1605 -30 66 1 206 8 310 15 216 16 244 13 427 -48 150 -51 270
-99 478 -195 102 -46 202 -87 223 -89 34 -5 37 -4 37 19 0 42 -294 454 -504
706 l-86 102 38 0 c42 0 242 -33 340 -55 137 -32 879 -254 1117 -335 194 -66
877 -285 1045 -335 170 -51 255 -61 273 -33 16 24 -6 61 -52 86 -20 11 -293
126 -606 255 -1150 473 -1615 675 -1815 784 -105 58 -170 116 -447 398 -229
233 -269 278 -324 368 -78 128 -117 178 -233 297 -58 60 -133 123 -201 169
-59 41 -125 91 -145 113 -23 23 -79 117 -141 236 -205 394 -391 697 -586 954
-106 139 -175 196 -187 156z m270 -463 c155 -273 341 -629 369 -705 10 -25 24
-60 32 -78 8 -19 13 -36 10 -38 -2 -2 -22 1 -43 8 -44 15 -49 23 -120 193 -25
61 -126 279 -225 485 -153 320 -197 422 -175 399 3 -3 71 -121 152 -264z m-78
-185 c44 -102 110 -247 147 -324 78 -163 117 -257 110 -264 -3 -3 -21 -1 -41
4 -36 9 -37 10 -96 169 -49 132 -182 515 -205 590 -15 50 11 -4 85 -175z m4
-370 c54 -138 74 -187 86 -212 2 -5 -6 -8 -17 -8 -16 0 -26 20 -56 108 -40
118 -85 271 -84 287 0 6 3 3 6 -5 3 -8 32 -85 65 -170z m-66 -231 c-25 -7 -46
7 -46 30 0 9 -14 61 -30 116 -32 106 -60 218 -60 238 1 7 36 -76 79 -183 75
-187 77 -195 57 -201z m-182 107 c20 -54 36 -105 36 -113 0 -19 -27 -16 -35 5
-13 30 -53 224 -45 215 4 -4 24 -53 44 -107z m-91 -138 c-2 -5 -12 -8 -22 -8
-16 0 -20 14 -30 88 -17 138 -13 145 23 32 18 -58 31 -108 29 -112z m-317 -55
c-12 -13 -24 13 -29 67 l-6 55 20 -58 c12 -32 18 -61 15 -64z m-167 14 c8 -45
0 -65 -13 -31 -7 19 -8 89 -1 82 3 -2 9 -26 14 -51z m526 -397 c229 -24 443
-67 640 -129 105 -33 219 -72 254 -86 36 -14 74 -25 85 -25 13 0 17 -3 10 -10
-7 -7 -20 -7 -40 0 -16 5 -96 18 -179 29 -82 11 -188 27 -235 35 -133 23 -659
77 -935 96 -82 6 -318 12 -522 13 -205 1 -373 5 -373 10 0 4 17 7 38 8 20 0
136 18 257 39 l220 39 335 -4 c184 -2 385 -9 445 -15z m1515 -228 c0 -37 -4
-44 -27 -53 -27 -10 -74 -7 -176 13 -86 16 -79 28 16 28 59 0 88 4 96 14 6 7
14 41 17 74 l7 62 33 -48 c26 -36 34 -57 34 -90z m-1570 24 c191 -24 270 -49
270 -87 0 -11 -9 -37 -20 -59 -11 -22 -30 -79 -42 -127 -20 -79 -23 -112 -22
-328 0 -132 5 -267 11 -300 6 -33 9 -62 7 -64 -2 -3 -21 5 -42 16 -58 33 -331
117 -507 157 -244 55 -291 96 -289 246 2 105 32 365 49 426 17 59 66 115 116
132 43 15 311 8 469 -12z m-637 -4 c12 -10 9 -28 -19 -112 -50 -147 -64 -247
-64 -442 l0 -170 -117 6 c-153 9 -196 20 -232 62 -41 46 -46 97 -32 314 12
186 29 302 48 321 14 14 244 38 330 35 40 -2 79 -8 86 -14z m-495 -64 c-3 -24
-18 -88 -34 -143 -27 -95 -28 -109 -27 -283 0 -100 4 -194 7 -207 6 -22 3 -25
-21 -25 -16 0 -108 -15 -206 -33 -146 -27 -180 -31 -189 -20 -8 9 -9 86 -4
261 4 136 9 258 12 272 l4 25 -10 -24 c-16 -38 -38 -183 -49 -328 -15 -206
-40 -244 -201 -302 -96 -35 -161 -70 -168 -88 -6 -20 39 -16 204 19 83 17 159
28 168 25 10 -4 27 -29 39 -57 12 -27 26 -50 31 -50 4 0 5 8 2 17 -4 9 -10 36
-13 60 l-6 43 84 -1 c193 -1 345 -15 385 -36 22 -11 60 -23 85 -26 25 -3 136
-40 245 -82 262 -100 254 -96 254 -104 0 -3 -143 -6 -318 -7 -519 -1 -773 -47
-1177 -211 -239 -97 -516 -277 -751 -490 -45 -40 -86 -73 -91 -73 -24 0 -79
271 -83 411 -2 44 42 161 107 287 31 59 43 65 43 22 0 -98 59 -355 77 -336 2
2 -3 30 -11 62 -18 71 -46 269 -46 326 0 33 11 57 57 126 85 128 206 277 301
369 88 86 286 257 335 288 l28 18 -7 -44 c-3 -24 -15 -84 -26 -134 -40 -180
-34 -424 14 -554 23 -62 68 -140 82 -141 9 0 9 0 -30 150 -27 102 -28 112 -28
370 -1 146 3 286 7 312 l8 48 202 101 c124 63 216 103 238 105 20 1 51 10 68
18 35 18 353 104 390 105 21 1 23 -2 19 -41z m1947 -42 c132 -30 290 -64 350
-76 181 -35 200 -50 106 -84 l-53 -19 23 -18 c23 -17 326 -129 351 -129 7 -1
24 -7 38 -15 24 -13 21 -14 -40 -14 -211 -1 -359 50 -842 291 -196 98 -260
138 -195 123 12 -3 130 -29 262 -59z m-2495 40 c0 -2 -52 -29 -116 -60 -170
-82 -198 -99 -549 -347 -16 -11 21 29 84 90 168 164 284 234 491 297 80 24 90
26 90 20z m2322 -122 c46 -26 107 -62 137 -81 l53 -34 -38 -21 c-80 -42 -115
-92 -133 -193 -22 -116 -10 -215 43 -385 47 -147 31 -214 -57 -256 -67 -31
-92 -30 -123 4 -28 30 -102 177 -130 257 -24 71 -25 441 -1 532 17 64 77 194
104 225 18 21 32 16 145 -48z m-337 -144 c-31 -61 -35 -78 -35 -146 0 -126 86
-494 150 -646 54 -126 96 -164 230 -205 l75 -23 -100 6 c-115 7 -172 27 -204
72 -55 77 -99 211 -153 456 -25 113 -31 166 -32 266 -1 117 1 128 27 181 26
54 63 109 73 109 2 0 -12 -31 -31 -70z m658 -39 c31 -11 118 -46 194 -79 76
-33 143 -61 150 -63 7 -2 -6 -28 -34 -64 -75 -99 -86 -132 -80 -244 3 -53 8
-106 12 -118 6 -19 2 -25 -21 -34 -47 -18 -327 -89 -351 -89 -16 0 -28 13 -46
53 -41 86 -48 125 -54 282 l-6 151 37 79 c41 88 88 145 121 145 12 0 47 -9 78
-19z m881 -308 c169 -74 327 -141 350 -150 22 -9 46 -20 51 -25 6 -5 -13 0
-41 10 -28 11 -187 68 -355 127 -167 59 -308 111 -314 115 -5 5 -18 23 -29 40
l-18 32 23 -7 c13 -4 163 -68 333 -142z m-379 24 c93 -93 54 -231 -68 -244
-50 -6 -85 17 -111 71 -37 79 -2 182 69 199 52 13 77 7 110 -26z m-2180 -122
c332 -37 694 -132 887 -232 68 -35 78 -46 57 -59 -8 -5 -8 -9 1 -14 7 -4 9
-13 5 -20 -11 -17 -61 -9 -205 35 -181 54 -218 63 -374 95 -297 60 -730 109
-987 111 -79 1 -173 4 -209 8 -104 11 281 25 485 18 390 -14 793 -76 1050
-162 144 -48 145 -48 87 -21 -119 56 -434 146 -633 180 -255 44 -717 45 -1074
1 -36 -4 -35 -3 12 10 29 9 144 26 255 39 240 28 458 32 643 11z m2840 -162
c208 -58 838 -254 848 -263 10 -9 -30 -2 -298 50 -310 61 -386 71 -590 77
-176 4 -467 -7 -525 -22 -42 -10 98 53 153 70 35 10 121 18 261 23 169 6 205
9 185 19 -13 6 -70 30 -126 54 -57 23 -103 44 -103 47 0 2 8 1 18 -3 9 -4 89
-27 177 -52z m-415 -28 c0 -11 -59 -28 -194 -55 -82 -17 -146 -36 -157 -46
-31 -28 -23 -62 25 -110 26 -26 37 -44 28 -44 -25 0 -79 39 -122 87 l-40 45
21 29 c26 37 147 75 294 92 51 6 145 7 145 2z m-19 -195 c68 -13 151 -63 336
-201 81 -62 155 -117 163 -122 8 -6 -6 11 -31 39 -25 27 -94 100 -153 163 -58
63 -106 119 -106 124 0 17 83 -3 117 -29 72 -55 343 -361 478 -540 16 -21 37
-48 47 -58 30 -32 23 -56 -15 -56 -25 0 -49 14 -109 63 -182 152 -344 257
-633 411 -110 59 -208 115 -219 126 -34 33 -1 87 55 89 9 1 40 -4 70 -9z
m1324 -50 c3 -5 1 -10 -4 -10 -6 0 -11 5 -11 10 0 6 2 10 4 10 3 0 8 -4 11
-10z m-3685 -81 c86 -16 58 -24 -119 -33 -306 -16 -650 -81 -913 -172 -415
-144 -848 -388 -1194 -672 -42 -35 -78 -61 -80 -59 -5 4 201 207 299 295 152
136 388 298 562 385 325 162 591 240 909 267 130 11 452 4 536 -11z m1886
-126 c27 -18 80 -46 118 -63 38 -17 67 -32 65 -35 -7 -7 -153 31 -189 50 -86
44 -129 100 -130 169 0 26 3 24 44 -31 23 -32 65 -73 92 -90z m-191 -32 c16
-33 159 -111 201 -111 13 0 24 -5 24 -11 0 -7 -11 -8 -32 -3 -38 9 -568 7
-613 -2 -16 -4 -27 -3 -22 2 4 4 59 20 123 36 112 27 254 84 268 107 13 20 35
12 51 -18z m405 -71 c0 -5 -2 -10 -4 -10 -3 0 -8 5 -11 10 -3 6 -1 10 4 10 6
0 11 -4 11 -10z m-4396 -209 c14 -68 35 -143 47 -167 l20 -43 -118 -135 c-65
-74 -121 -135 -124 -135 -12 -2 10 109 60 304 57 222 81 308 86 303 2 -2 15
-59 29 -127z m1581 30 c4 -28 4 -80 0 -118 -10 -112 -48 -394 -52 -390 -6 6
16 504 23 532 10 39 22 29 29 -24z m-112 -118 c10 -150 7 -431 -3 -343 -14
126 -24 450 -13 450 6 0 13 -46 16 -107z m-323 37 c0 -5 -10 -11 -22 -14 -31
-5 -157 -34 -188 -42 -14 -4 -22 -4 -19 0 7 7 193 63 217 65 6 1 12 -3 12 -9z
m357 -592 c-3 -8 -6 -5 -6 6 -1 11 2 17 5 13 3 -3 4 -12 1 -19z"/>
<path d="M2191 4065 c-12 -61 -31 -223 -31 -272 0 -65 20 -182 46 -271 17 -62
28 -67 13 -7 -6 22 -14 157 -18 300 -4 143 -8 256 -10 250z"/>
<path d="M5976 4147 c-36 -36 -42 -90 -14 -140 50 -90 146 -49 151 65 1 34 -4
45 -31 69 -39 35 -75 37 -106 6z"/>
</g>
</svg>
