<?xml version="1.0" standalone="no"?>
<!DOCTYPE svg PUBLIC "-//W3C//DTD SVG 20010904//EN"
 "http://www.w3.org/TR/2001/REC-SVG-20010904/DTD/svg10.dtd">
<svg version="1.0" xmlns="http://www.w3.org/2000/svg"
 width="1280.000000pt" height="1176.000000pt" viewBox="0 0 1280.000000 1176.000000"
 preserveAspectRatio="xMidYMid meet">
<metadata>
Created by potrace 1.15, written by Peter Selinger 2001-2017
</metadata>
<g transform="translate(0.000000,1176.000000) scale(0.100000,-0.100000)"
fill="#000000" stroke="none">
<path d="M12519 11746 c-61 -22 -106 -55 -167 -122 l-58 -64 -1194 -170
c-1404 -200 -1370 -195 -1620 -217 -174 -15 -377 -17 -1856 -19 l-1662 -2 -44
-26 c-32 -19 -59 -26 -95 -26 -45 0 -56 -5 -114 -52 -84 -67 -112 -78 -206
-77 -45 0 -95 -5 -118 -14 -98 -36 -616 -301 -678 -348 -38 -28 -67 -53 -64
-55 2 -3 90 38 193 90 104 52 214 102 244 112 31 9 63 27 73 40 25 32 67 33
67 2 0 -38 61 -127 103 -149 31 -17 19 17 -23 66 -32 37 -38 50 -30 65 13 25
99 80 124 80 12 0 44 -18 71 -41 27 -23 71 -52 97 -65 55 -28 59 -40 21 -56
-130 -53 -236 -112 -296 -167 -74 -67 -115 -91 -197 -114 -106 -31 -123 -72
-24 -61 37 5 54 3 54 -4 0 -30 -118 -78 -228 -93 -81 -11 -132 -33 -114 -51 5
-5 52 -12 104 -15 81 -5 100 -3 141 15 53 24 62 13 26 -32 -39 -50 -95 -71
-189 -71 -71 0 -92 4 -126 24 -23 13 -46 33 -52 45 -5 11 -17 98 -27 191 -9
94 -18 172 -20 174 -7 7 -45 -64 -56 -104 -15 -52 -6 -156 21 -272 17 -73 32
-109 69 -165 65 -99 149 -198 168 -198 21 0 104 -64 167 -129 54 -55 59 -77
32 -146 -24 -62 -54 -190 -70 -301 -9 -58 -26 -124 -41 -155 -20 -44 -25 -69
-25 -139 0 -54 -6 -100 -17 -128 -14 -37 -14 -49 -4 -78 10 -27 10 -47 0 -92
-24 -116 -111 -317 -169 -392 -15 -19 -36 -55 -47 -80 -11 -25 -48 -94 -81
-154 -63 -112 -101 -213 -123 -321 -21 -108 -69 -172 -147 -195 -20 -7 -129
-16 -242 -21 -113 -5 -229 -14 -259 -19 -71 -13 -69 -13 -73 12 -2 17 -21 29
-82 55 -105 43 -158 80 -293 201 -170 153 -283 222 -453 277 -109 35 -305 45
-416 22 -167 -36 -318 -123 -450 -259 -87 -89 -136 -157 -204 -283 -114 -210
-196 -290 -371 -365 -103 -43 -109 -54 -28 -47 77 7 176 44 258 97 62 40 77
61 223 314 89 154 124 201 207 278 123 114 262 177 438 200 190 25 419 -39
598 -167 34 -24 106 -88 161 -143 105 -105 143 -130 239 -157 115 -33 169 -75
97 -75 -29 0 -123 -41 -190 -84 l-42 -26 -107 85 c-188 149 -363 216 -531 201
-125 -10 -261 -53 -246 -78 7 -10 188 -3 223 9 11 4 13 3 6 -4 -5 -5 -53 -25
-105 -42 -197 -68 -520 -252 -520 -298 0 -21 11 -16 101 38 46 28 102 58 124
65 21 8 47 21 56 30 38 35 289 117 306 101 3 -4 -29 -43 -70 -87 -42 -45 -102
-122 -133 -173 -167 -271 -393 -456 -660 -540 -208 -66 -346 -59 -509 23 -55
28 -108 50 -117 50 -28 0 -21 -26 16 -68 107 -118 323 -157 551 -98 203 53
440 197 594 362 40 43 115 141 167 220 104 156 171 226 262 271 50 25 68 28
152 28 78 0 111 -5 184 -29 49 -16 100 -39 114 -51 24 -21 25 -25 14 -50 -7
-15 -66 -84 -131 -154 -140 -148 -193 -212 -254 -306 -84 -131 -142 -263 -172
-392 -23 -95 -30 -262 -15 -353 19 -120 24 -277 10 -339 -20 -90 -59 -161
-130 -232 -67 -67 -118 -97 -225 -130 -84 -26 -126 -56 -152 -109 -22 -41 -23
-57 -23 -237 0 -137 -6 -230 -19 -325 -11 -73 -29 -214 -41 -313 -12 -99 -28
-214 -36 -255 -14 -77 -74 -279 -99 -337 -24 -54 -64 -53 -165 7 -71 43 -196
-3 -317 -114 -111 -103 -162 -221 -130 -298 19 -46 50 -62 158 -84 46 -9 115
-28 153 -41 53 -19 79 -23 113 -18 63 9 110 31 129 61 21 31 98 71 156 80 68
11 114 39 209 131 49 47 89 83 89 79 0 -23 -98 -210 -151 -287 -77 -112 -196
-241 -256 -276 l-44 -25 -67 16 c-91 23 -311 86 -522 151 -188 57 -240 69
-240 56 0 -19 157 -75 530 -187 312 -94 345 -113 338 -187 l-3 -32 -55 2 c-30
1 -80 3 -110 5 -67 3 -137 -32 -211 -103 -66 -64 -93 -120 -84 -175 6 -41 5
-44 -22 -51 -45 -13 -263 -9 -320 6 -46 11 -58 20 -112 87 -58 70 -68 77 -184
133 -139 67 -296 128 -375 144 -43 9 -68 8 -134 -5 -86 -18 -174 -56 -167 -73
5 -12 14 -11 109 10 115 26 238 17 315 -22 33 -17 87 -38 119 -48 174 -50 315
-174 316 -278 0 -20 -13 -40 -46 -73 -26 -24 -44 -47 -41 -51 4 -3 29 4 57 16
28 12 54 19 59 17 5 -3 11 -24 15 -46 9 -59 37 -51 53 15 14 57 37 79 96 97
53 15 242 14 326 -1 175 -33 358 -107 439 -176 61 -53 130 -154 165 -243 27
-67 31 -90 31 -173 1 -88 -1 -99 -27 -138 -15 -23 -25 -46 -22 -51 3 -6 21
-10 40 -10 51 0 65 -27 65 -125 0 -104 13 -149 51 -176 28 -19 569 -203 576
-195 9 8 -67 61 -122 87 -33 15 -140 52 -237 84 -203 64 -181 41 -178 195 1
80 -1 88 -30 132 -50 75 -74 224 -49 311 16 57 -26 66 544 -108 187 -57 370
-111 407 -121 91 -22 100 -35 58 -79 -40 -41 -51 -42 -121 -11 -68 30 -714
246 -735 246 -30 0 -8 -25 46 -52 82 -41 275 -110 465 -168 222 -67 255 -79
255 -96 0 -24 -46 -27 -145 -10 -139 24 -439 101 -594 152 -85 29 -138 41
-144 35 -28 -28 143 -88 700 -247 59 -16 66 -29 26 -45 -36 -14 -154 11 -398
87 -191 59 -277 70 -175 22 30 -14 140 -53 244 -87 230 -76 266 -92 266 -126
0 -14 -6 -25 -12 -25 -27 0 -179 41 -315 84 -173 54 -198 58 -198 31 0 -27
108 -72 321 -133 l169 -49 12 -132 c16 -180 28 -230 80 -344 30 -65 48 -122
55 -169 16 -119 62 -213 147 -301 71 -75 108 -90 226 -95 77 -3 104 0 120 11
31 23 5 44 -94 73 -146 43 -193 65 -242 114 -43 43 -89 134 -89 175 0 20 4 19
54 -10 43 -25 156 -46 156 -28 0 5 -34 27 -76 48 -90 46 -169 126 -209 210
-44 95 -58 181 -52 345 3 80 8 152 11 161 4 9 18 21 32 27 18 9 24 19 24 45 0
39 18 59 77 82 24 9 56 33 73 54 61 73 87 93 175 136 85 43 148 62 277 84 31
5 89 24 130 42 40 17 92 33 116 34 55 2 72 25 43 54 -25 25 -53 21 -171 -24
-119 -47 -126 -48 -157 -32 -16 8 -66 23 -113 32 -47 9 -248 66 -446 125 -526
158 -699 199 -699 165 0 -11 57 -29 594 -192 518 -156 512 -153 476 -183 -36
-30 -381 46 -790 175 -320 101 -450 156 -477 202 -9 16 -55 70 -103 120 l-85
91 118 104 c66 56 141 122 169 144 81 69 129 177 208 474 49 185 94 296 176
438 158 271 349 477 527 566 84 42 190 65 407 87 420 42 640 110 910 279 61
38 131 74 157 80 54 14 107 4 334 -59 168 -47 317 -81 509 -116 250 -45 285
-63 285 -138 0 -42 -9 -67 -93 -252 -71 -158 -156 -429 -216 -690 -34 -148
-107 -272 -177 -301 -34 -14 -94 -87 -169 -209 -56 -89 -52 -88 -232 -49 -152
34 -337 42 -440 21 -39 -9 -104 -30 -143 -47 -106 -46 -121 -47 -248 -6 -127
40 -320 85 -396 92 l-51 5 30 -17 c40 -23 207 -79 329 -110 106 -27 136 -39
136 -54 0 -20 -73 -9 -265 41 -109 27 -209 49 -224 47 l-26 -3 35 -23 c19 -12
107 -45 195 -73 88 -28 167 -58 175 -66 13 -13 12 -17 -14 -36 -123 -91 -139
-108 -120 -127 14 -14 93 11 153 49 27 17 61 52 77 77 76 120 295 198 559 198
162 0 243 -19 347 -79 43 -25 85 -45 93 -45 9 0 41 -23 71 -52 134 -126 264
-400 147 -308 -14 11 -30 20 -34 20 -21 0 -6 -51 31 -104 76 -108 92 -157 105
-318 6 -83 21 -138 36 -138 19 0 39 71 39 137 0 92 -24 185 -65 259 -19 34
-35 65 -35 68 0 3 20 6 45 6 50 0 249 -50 910 -228 l440 -119 70 64 c38 35 74
62 79 60 6 -2 13 -17 17 -34 3 -17 21 -59 38 -93 19 -36 31 -73 29 -88 -3 -23
-9 -28 -38 -30 -48 -5 -95 10 -233 74 -121 57 -217 84 -298 84 -69 0 -190 25
-402 81 -229 61 -481 119 -522 119 -26 0 -27 -2 -15 -14 21 -20 128 -55 394
-126 126 -34 243 -69 260 -78 l31 -17 -45 -3 c-49 -3 -166 18 -391 72 -164 38
-217 46 -221 31 -5 -18 64 -43 260 -95 105 -27 216 -59 245 -70 65 -25 101
-25 202 0 109 27 264 27 371 0 182 -45 336 -159 363 -266 7 -26 19 -61 28 -77
11 -22 15 -58 15 -130 -1 -134 2 -140 82 -161 75 -21 96 -17 96 17 0 95 219
85 312 -15 47 -51 67 -110 78 -227 10 -106 27 -139 57 -108 11 11 18 38 21 82
7 105 -2 104 342 14 219 -57 342 -81 310 -61 -30 20 -259 94 -422 137 -93 25
-183 52 -200 61 -52 26 -98 64 -98 80 0 26 14 24 495 -86 211 -48 245 -53 245
-42 0 5 -8 12 -17 15 -434 127 -681 196 -957 268 -104 27 -202 57 -219 66 -40
24 -55 49 -39 65 13 13 71 -1 562 -132 416 -112 1011 -258 1115 -274 39 -6 39
-6 15 8 -14 8 -91 33 -170 56 -80 23 -227 66 -328 96 -101 29 -310 88 -465
130 -555 149 -724 203 -805 258 -85 56 -61 102 82 157 173 66 291 146 382 257
72 88 101 159 119 292 49 363 86 576 138 810 47 208 52 233 86 508 36 284 51
447 51 563 l0 86 188 189 c312 313 333 359 382 831 35 335 58 418 156 573 82
128 198 337 309 555 104 206 153 318 170 390 10 46 14 50 42 53 19 2 65 -11
116 -32 117 -48 251 -81 524 -126 128 -22 242 -44 253 -50 15 -8 20 -21 20
-53 0 -26 11 -61 28 -93 70 -131 111 -146 259 -99 82 26 196 93 214 126 20 37
70 59 136 59 81 0 103 10 170 72 142 135 153 232 39 356 -125 137 -279 351
-321 446 -32 73 -141 251 -259 425 -54 79 -100 158 -106 183 -21 81 -55 131
-158 240 -109 113 -225 208 -254 208 -14 0 -17 8 -17 38 1 20 -9 71 -21 112
-32 108 -84 159 -178 175 -71 12 -236 153 -304 260 -14 22 -33 47 -42 54 -47
40 -65 -78 -31 -208 9 -35 14 -65 11 -68 -9 -9 -191 70 -271 118 -45 27 -87
49 -94 49 -23 0 -4 -57 64 -199 36 -73 65 -139 65 -146 0 -33 -82 -29 -152 6
-157 80 -294 47 -366 -88 -47 -88 -44 -98 18 -73 60 24 93 25 110 5 18 -22 5
-33 -58 -50 -158 -44 -192 -57 -245 -95 -47 -34 -107 -108 -107 -133 0 -18 23
-2 71 48 60 63 81 67 196 38 l65 -16 -107 -55 c-127 -65 -217 -143 -251 -217
-13 -27 -24 -60 -24 -72 0 -11 -19 -45 -42 -75 -46 -58 -145 -158 -156 -158
-4 0 -8 12 -7 27 0 22 -7 31 -34 44 -41 19 -61 45 -61 77 0 33 -34 78 -68 90
-45 15 -91 -12 -95 -57 -2 -30 -11 -26 -56 25 -50 57 -60 92 -54 178 6 69 4
73 -28 55 -20 -10 -20 -10 -4 14 9 14 32 33 52 42 29 14 42 15 80 5 65 -16
128 -63 169 -125 30 -45 38 -70 50 -152 17 -107 34 -139 66 -122 39 21 60 70
55 131 -7 76 -38 129 -112 187 -45 35 -73 69 -106 127 -25 43 -67 115 -93 159
-25 44 -51 98 -57 120 -22 82 -45 119 -126 209 -125 137 -283 380 -283 436 0
31 -41 81 -115 140 -42 33 -81 60 -86 60 -19 0 -8 -24 40 -84 72 -91 120 -170
163 -269 21 -48 38 -92 38 -98 0 -5 -21 -9 -47 -9 -27 0 -71 -3 -99 -6 -50 -6
-52 -8 -75 -57 -53 -113 -84 -123 -149 -49 -61 69 -123 178 -123 215 0 19 -10
44 -23 60 -29 35 -30 44 -4 52 45 14 16 39 -69 58 -60 14 -113 48 -98 63 4 4
24 0 44 -9 89 -39 273 -64 273 -37 0 15 -40 37 -104 55 l-58 16 19 22 c10 12
47 53 81 90 34 37 62 72 62 77 0 26 -45 4 -102 -48 -35 -32 -76 -68 -92 -80
-33 -25 -76 -29 -76 -8 0 14 13 26 99 89 78 57 82 89 8 70 -23 -6 -43 -10 -45
-8 -2 1 17 33 42 70 25 36 46 70 46 76 0 23 -38 5 -80 -39 -36 -38 -60 -81
-118 -211 -40 -90 -95 -200 -123 -244 -89 -138 -135 -254 -174 -439 -32 -151
-98 -198 -338 -243 -76 -14 -146 -25 -155 -25 -9 0 -105 54 -212 120 -107 67
-220 133 -250 147 -64 30 -172 41 -236 24 -53 -14 -97 -48 -89 -69 4 -12 -2
-14 -37 -9 -49 7 -72 30 -57 58 5 11 20 19 33 19 53 0 56 49 5 76 -48 24 -62
56 -56 122 9 109 91 239 265 425 117 124 172 190 172 206 0 21 -58 -27 -197
-161 -73 -71 -137 -128 -143 -128 -15 0 -12 46 10 132 30 120 55 155 164 228
163 110 367 407 306 445 -18 11 -40 -15 -77 -89 -20 -39 -48 -89 -63 -111 -38
-56 -125 -142 -162 -161 -45 -23 -54 -8 -40 69 19 103 14 157 -14 157 -17 0
-37 -38 -58 -112 -9 -32 -22 -58 -30 -58 -7 0 -23 12 -37 26 -13 14 -67 62
-119 107 -126 107 -220 198 -220 214 0 18 10 16 33 -4 31 -28 144 -23 232 11
127 49 223 130 211 179 -6 25 17 22 91 -14 73 -35 103 -73 103 -131 0 -46 8
-68 26 -68 18 0 34 32 34 67 0 15 3 38 6 50 6 21 6 21 51 -7 25 -16 65 -32 89
-36 54 -8 80 -33 138 -133 74 -128 104 -145 282 -160 65 -6 122 -11 127 -11
14 0 7 -18 -18 -48 -35 -42 -33 -55 8 -39 45 19 256 154 290 186 60 55 87 131
133 376 9 50 25 112 35 138 11 26 19 59 19 72 0 19 10 30 48 49 56 28 76 49
97 99 48 116 -34 287 -160 332 -27 9 -57 19 -65 22 -53 16 90 36 380 54 292
18 1560 24 1916 9 241 -10 344 -10 455 -1 362 29 2378 54 2534 32 96 -14 125
-30 125 -72 0 -44 36 -75 105 -89 70 -14 150 -6 193 20 63 38 93 122 72 200
-14 52 -80 125 -127 141 -58 19 -136 7 -178 -27 -77 -61 -87 -64 -221 -74
-147 -11 -1812 -26 -1803 -16 8 9 513 79 1089 151 157 20 411 53 565 75 495
70 646 83 723 60 19 -5 51 -24 71 -43 50 -45 98 -60 176 -55 89 5 150 44 188
117 89 176 -68 354 -254 287z m71 -140 c0 -8 -11 -17 -25 -20 -27 -7 -75 2
-75 13 0 16 15 21 57 21 30 0 43 -4 43 -14z m-446 -462 c24 -9 19 -21 -10 -27
-35 -6 -64 2 -64 19 0 15 45 19 74 8z m-5906 -61 c78 -53 130 -105 113 -111
-7 -2 -23 4 -36 14 -93 76 -136 105 -145 99 -20 -12 -9 -37 35 -81 40 -39 45
-48 45 -89 0 -79 -57 -107 -90 -45 -6 11 -17 20 -26 20 -23 0 -29 -30 -10 -60
23 -40 20 -42 -20 -15 -20 13 -52 27 -73 31 -68 12 -81 27 -81 96 0 69 21 113
71 149 71 50 136 48 217 -8z m-399 -66 c6 -8 14 -46 17 -87 8 -86 -2 -100 -73
-100 -23 0 -62 -9 -86 -21 -38 -18 -48 -20 -86 -9 -25 6 -61 28 -84 49 l-40
38 31 1 c38 1 91 24 207 90 49 29 92 52 96 52 4 0 11 -6 18 -13z m616 -113
c92 -8 103 -12 146 -51 44 -40 84 -109 94 -165 9 -46 -25 -128 -52 -128 -10 0
-67 25 -128 55 -104 53 -116 57 -215 66 -176 17 -178 18 -95 79 31 23 69 60
85 83 47 68 60 79 83 73 12 -3 49 -9 82 -12z m-655 -175 c0 -7 -42 -55 -93
-108 -92 -95 -137 -147 -137 -161 0 -3 26 -17 58 -30 78 -32 151 -79 190 -124
18 -21 55 -82 81 -136 59 -120 105 -185 172 -241 57 -48 53 -59 -24 -62 -33
-1 -55 6 -94 31 -65 42 -171 154 -179 190 -9 36 -27 56 -95 103 -31 22 -65 52
-76 68 -15 20 -38 32 -80 44 -103 27 -131 29 -183 12 -121 -40 -121 33 -1 153
67 67 125 106 194 131 31 10 84 37 118 58 140 88 149 93 149 72z m145 -29
c-10 -16 -65 -42 -78 -37 -7 2 4 14 23 25 37 23 66 29 55 12z m452 -95 c123
-42 169 -135 67 -135 -16 0 -28 -8 -35 -24 -9 -20 -5 -37 25 -104 41 -90 44
-121 16 -147 -22 -20 -68 -22 -159 -5 -88 16 -101 9 -101 -48 0 -57 29 -109
65 -118 14 -3 49 -9 78 -13 45 -5 52 -9 55 -30 11 -75 -147 -63 -230 16 -20
19 -28 37 -28 62 0 81 -45 82 -56 1 -5 -38 -11 -50 -24 -50 -36 0 -73 59 -121
197 -17 48 -44 107 -60 130 -29 42 -29 43 -9 55 26 17 25 32 -2 50 l-22 15 24
16 c14 8 36 17 49 19 24 3 25 1 22 -53 -1 -36 4 -70 15 -95 l17 -39 8 40 c4
22 8 58 8 79 2 82 59 157 147 191 50 19 180 14 251 -10z m-669 -127 c-2 -13
-11 -24 -20 -26 -21 -4 -24 18 -6 36 19 19 30 14 26 -10z m-161 -281 c17 -13
6 -28 -15 -20 -26 9 -42 24 -37 34 6 9 32 2 52 -14z m893 -90 c0 -14 -20 -37
-32 -37 -10 0 -11 34 -1 43 11 12 33 8 33 -6z m-110 -27 c0 -5 -14 -10 -31
-10 -17 0 -28 4 -24 10 3 6 17 10 31 10 13 0 24 -4 24 -10z m-120 -215 c17
-20 5 -45 -20 -45 -11 0 -23 7 -26 15 -6 15 11 45 26 45 4 0 13 -7 20 -15z
m375 -816 c4 -11 57 -73 118 -138 62 -65 127 -145 146 -177 43 -73 79 -114
102 -114 31 0 50 -12 66 -44 9 -17 35 -48 58 -68 24 -21 58 -69 80 -110 89
-172 274 -348 364 -348 22 0 23 -2 16 -57 -8 -65 -14 -83 -26 -83 -5 0 -39 28
-76 61 -95 86 -135 102 -114 46 5 -14 7 -27 4 -31 -3 -3 -30 10 -59 29 -170
109 -418 203 -402 153 15 -47 357 -241 446 -253 79 -11 84 -14 184 -118 71
-73 101 -98 109 -90 8 8 3 26 -18 64 -15 30 -30 59 -32 64 -8 22 63 -54 115
-121 52 -68 102 -104 143 -104 35 0 89 -30 190 -105 254 -189 535 -372 876
-569 121 -70 223 -131 228 -135 26 -25 -179 -444 -401 -816 -36 -60 -129 -207
-208 -325 -79 -119 -161 -251 -183 -295 -68 -133 -54 -139 53 -23 74 80 75 81
71 48 -3 -19 -14 -136 -25 -260 -13 -145 -28 -250 -41 -295 -62 -209 -250
-453 -483 -625 -47 -35 -86 -69 -86 -74 0 -5 9 -20 21 -32 74 -78 24 -608
-111 -1184 -38 -164 -63 -299 -120 -645 -32 -202 -50 -270 -81 -309 -28 -36
-39 -33 -32 9 4 23 2 35 -6 35 -18 0 -13 29 15 76 36 61 15 57 -68 -11 -36
-30 -69 -55 -72 -55 -3 0 -1 12 4 26 17 44 11 46 -36 10 -25 -20 -52 -32 -60
-29 -19 7 -64 -34 -64 -58 0 -23 32 -32 85 -25 37 6 45 4 58 -14 12 -18 21
-20 57 -14 40 7 42 6 31 -14 -22 -41 -188 -152 -226 -151 -19 0 -19 1 3 16 30
21 28 33 -7 33 -19 0 -34 8 -45 24 -8 14 -25 26 -37 28 -12 2 -31 15 -43 31
l-20 27 38 32 c116 96 180 426 146 758 -6 52 -13 183 -16 290 -9 303 11 381
136 529 96 113 93 132 -9 60 -36 -25 -73 -43 -99 -46 -36 -5 -45 -2 -72 26
-42 42 -39 81 7 95 18 5 61 33 95 62 34 30 64 52 66 49 3 -3 -22 -33 -55 -67
-93 -98 -110 -145 -33 -94 52 34 260 234 313 301 40 50 40 50 15 53 -14 2 -61
-13 -105 -32 -97 -43 -105 -44 -97 -11 7 29 3 30 -51 11 -22 -8 -69 -17 -105
-21 -36 -4 -71 -11 -79 -15 -7 -4 -24 -45 -37 -91 -12 -46 -31 -112 -41 -147
-17 -60 -17 -64 1 -130 40 -144 47 -194 56 -412 6 -124 17 -297 25 -385 9 -88
21 -212 27 -275 l11 -115 -77 -157 c-53 -109 -85 -163 -104 -175 -15 -10 -67
-59 -117 -109 l-90 -90 -185 59 c-280 89 -426 131 -760 218 -168 43 -316 87
-330 97 -24 18 -49 57 -120 184 -22 40 -69 98 -132 160 l-97 96 55 84 c62 92
114 150 189 210 104 83 132 149 215 498 43 182 102 354 189 550 68 155 90 247
97 400 3 69 7 135 10 147 2 13 28 49 57 82 30 33 59 77 65 100 11 35 20 44 78
72 49 25 82 33 139 37 75 5 91 -2 61 -27 -7 -6 -55 -20 -106 -32 -90 -19 -130
-33 -130 -46 0 -5 104 3 145 13 11 2 26 0 34 -5 25 -16 -4 -38 -61 -44 -50 -6
-78 -20 -66 -33 26 -25 243 0 269 32 9 11 6 14 -14 14 -14 0 -29 4 -32 10 -3
5 8 41 24 79 36 81 61 179 61 240 0 79 19 117 98 199 122 127 282 322 282 343
0 15 -55 -26 -124 -91 -110 -103 -241 -280 -286 -385 -14 -33 -20 -69 -20
-120 0 -41 -4 -76 -8 -79 -15 -9 -188 -45 -251 -52 -62 -7 -76 1 -46 26 8 6
63 29 122 50 l108 39 -107 -6 c-108 -6 -126 -1 -93 27 16 13 20 40 7 40 -28 0
-112 -150 -133 -236 -14 -61 -25 -78 -99 -160 -44 -49 -62 -76 -66 -105 -8
-46 -17 -54 -66 -63 -23 -4 -42 -15 -49 -28 -25 -46 -172 7 -303 112 -105 83
-166 162 -166 214 0 19 -5 26 -18 26 -47 0 -105 109 -107 198 -1 47 -5 66 -17
73 -25 14 -42 103 -43 215 0 112 14 144 62 144 13 0 26 7 28 15 16 51 17 51
28 28 14 -31 45 -30 52 2 3 14 8 37 11 53 3 15 19 53 35 85 16 32 29 66 29 77
0 32 -24 23 -45 -16 -22 -41 -77 -88 -131 -110 -81 -34 -284 32 -328 107 -9
15 -16 30 -16 33 0 4 23 4 50 0 41 -5 50 -4 50 9 0 20 -21 27 -89 27 -79 0
-92 12 -98 92 -5 56 -2 74 20 122 67 146 272 258 413 227 62 -14 98 -45 125
-106 28 -63 51 -192 44 -242 -7 -52 9 -90 31 -72 8 6 14 29 14 50 0 26 7 46
25 64 23 26 24 28 8 66 -8 21 -12 50 -9 63 7 28 91 124 101 114 3 -3 -1 -46
-9 -95 -65 -365 -65 -372 -31 -740 17 -179 18 -193 2 -217 -21 -32 -42 -25
-56 17 -13 39 -47 263 -56 369 -7 80 -27 118 -46 87 -13 -22 -10 -182 6 -299
32 -225 81 -352 195 -505 102 -136 215 -243 236 -222 10 10 -27 64 -118 174
-101 120 -148 201 -148 256 0 19 14 61 30 93 28 54 32 72 40 204 5 80 10 219
10 310 0 208 17 470 35 569 20 103 70 202 147 289 67 77 285 282 300 282 16 0
8 -16 -32 -64 -64 -78 -51 -89 30 -25 l51 40 -30 -42 c-58 -79 -34 -85 58 -15
30 23 66 50 80 61 14 11 0 -9 -31 -43 -66 -72 -83 -98 -68 -107 18 -11 54 16
163 123 59 58 107 101 107 96 0 -6 -26 -41 -57 -78 -85 -100 -113 -137 -113
-152 0 -51 96 42 270 260 58 73 132 171 165 219 93 135 100 112 14 -50 -124
-235 -284 -460 -433 -609 -142 -142 -265 -220 -431 -274 -156 -51 -213 -100
-117 -100 170 0 381 120 608 345 156 154 250 272 398 495 133 201 232 306 327
349 80 36 140 48 305 61 72 6 155 17 184 26 55 16 89 46 245 216 55 61 79 79
112 88 127 33 -5 76 -143 47 -113 -24 -197 -73 -205 -121 -3 -14 -23 -25 -74
-41 -38 -12 -105 -37 -148 -54 l-79 -32 -51 35 c-29 20 -66 38 -83 42 -43 8
-126 -17 -196 -61 -32 -19 -84 -51 -115 -70 -61 -37 -113 -46 -113 -19 0 8 34
50 76 92 45 46 73 82 71 92 -3 8 -8 22 -12 31 -4 12 4 24 27 42 58 43 123 61
235 62 57 1 106 4 109 8 13 13 -18 35 -64 47 -35 8 -66 8 -113 1 -114 -19
-331 -101 -376 -143 -41 -39 -25 -88 29 -88 37 0 35 -15 -6 -72 -34 -49 -50
-97 -61 -180 -13 -101 -119 -218 -260 -285 -70 -33 -87 -37 -183 -41 -91 -4
-108 -8 -122 -25 -17 -20 -40 -16 -40 7 0 9 -20 12 -69 12 -87 -1 -110 14 -68
48 15 12 27 25 27 29 0 16 -63 5 -145 -25 -103 -37 -109 -34 -101 59 7 80 13
91 105 189 81 86 128 157 167 251 28 68 30 101 8 110 -10 4 -26 -7 -46 -31
-25 -30 -148 -107 -148 -92 0 3 18 26 40 51 70 81 42 98 -57 35 -47 -30 -96
-45 -129 -38 -12 2 5 15 49 36 82 41 171 128 216 211 17 33 28 61 22 61 -6 0
-61 -46 -123 -102 -62 -55 -128 -110 -146 -121 -18 -11 -42 -37 -53 -58 -12
-25 -40 -52 -77 -76 -42 -28 -60 -47 -67 -71 -9 -30 -12 -33 -40 -28 -28 5
-102 13 -335 36 -177 17 -303 72 -352 153 -13 21 -35 54 -50 73 -34 44 -42 98
-36 233 4 74 11 117 23 141 21 40 27 32 44 -51 21 -103 142 -277 260 -374 80
-65 138 -71 129 -14 -2 19 -12 25 -47 32 -64 13 -137 89 -189 198 -55 114 -75
195 -76 304 0 147 26 180 172 210 116 25 280 15 328 -19 15 -11 6 -13 -57 -9
-47 3 -90 -1 -119 -10 l-45 -14 47 -13 c57 -15 77 -35 85 -86 3 -22 12 -45 21
-51 21 -17 95 -16 212 2 113 17 110 17 110 7 0 -14 -45 -31 -99 -38 -58 -8
-79 -25 -56 -44 24 -20 110 -6 289 45 106 30 178 45 217 45 92 0 140 -33 85
-58 -13 -6 -33 -30 -44 -54 -12 -24 -51 -79 -87 -122 -69 -83 -90 -114 -82
-123 15 -14 220 148 302 240 61 68 72 74 212 127 59 22 90 40 107 62 23 31 26
31 138 39 127 9 158 15 158 29 0 18 -55 25 -190 24 -190 -1 -274 -28 -275 -87
0 -38 -39 -49 -160 -43 -88 4 -145 14 -285 51 -231 60 -397 110 -495 148 l-80
30 32 14 c54 22 66 68 37 138 -25 61 -3 92 78 109 18 4 34 20 50 49 26 47 55
58 93 33 42 -28 66 -89 63 -159 -3 -71 -23 -84 -42 -28 -6 19 -17 36 -23 39
-21 6 -38 -44 -27 -85 7 -30 15 -38 42 -45 26 -7 33 -13 30 -30 -2 -11 -11
-26 -21 -32 -15 -9 -21 -7 -36 13 -10 13 -23 21 -30 17 -16 -11 -13 -57 6 -78
32 -35 123 -12 123 31 0 10 11 39 25 65 14 26 25 63 25 82 0 32 2 34 33 34 35
0 101 -35 93 -49 -3 -5 -23 -11 -45 -15 -85 -13 -52 -59 39 -54 54 3 55 4 58
35 5 53 20 58 135 45 56 -7 119 -17 141 -23 42 -12 43 -14 11 -99 -35 -94 -5
-234 43 -204 14 10 16 24 13 101 -2 73 1 99 16 134 25 56 78 102 162 142 129
61 192 155 205 307 11 117 57 236 129 338 33 46 52 53 62 21z m131 -41 c13
-17 22 -33 19 -36 -6 -7 -77 49 -82 65 -8 22 37 1 63 -29z m2719 -259 c94 -96
100 -122 19 -74 -76 45 -164 150 -148 177 9 14 37 -8 129 -103z m-2080 22 c63
-33 179 -142 212 -199 14 -24 32 -73 39 -108 16 -73 34 -112 77 -166 17 -21
28 -39 26 -41 -2 -2 -30 -11 -62 -21 -45 -14 -70 -29 -113 -73 l-55 -56 -46
44 c-90 87 -175 195 -209 266 -26 53 -50 85 -89 119 -65 55 -77 93 -49 155 21
47 73 96 112 105 15 3 32 7 37 9 20 7 71 -8 120 -34z m1883 -77 c81 -31 194
-79 252 -105 57 -27 110 -47 117 -45 7 3 13 17 13 31 0 24 31 65 49 65 4 0 21
-10 36 -22 28 -22 28 -22 7 -38 -11 -9 -22 -27 -24 -40 -2 -18 -13 -25 -54
-36 -29 -7 -98 -34 -154 -59 -218 -98 -310 -97 -285 3 l7 27 13 -32 c8 -19 22
-33 32 -34 61 -4 100 12 152 60 46 43 37 56 -40 56 -54 0 -76 6 -132 34 -66
34 -178 125 -198 162 -14 28 -1 42 33 35 16 -3 95 -31 176 -62z m-4050 -106
c7 -7 12 -24 12 -39 0 -46 -53 -49 -64 -4 -12 46 21 74 52 43z m3610 -33 c51
-23 68 -45 36 -45 -18 0 -56 19 -65 33 -4 5 -29 15 -55 23 l-49 13 40 0 c23 1
63 -10 93 -24z m-3857 -17 c4 -42 -17 -66 -39 -44 -11 11 -11 18 -3 35 13 23
40 29 42 9z m152 -60 c21 -25 9 -45 -31 -50 -34 -4 -44 -43 -13 -51 42 -11 33
-112 -9 -112 -19 0 -40 80 -43 158 -1 48 2 61 18 73 23 17 54 10 78 -18z
m3907 -6 c0 -10 -20 -20 -104 -57 -64 -27 -90 -31 -84 -13 6 18 50 47 94 63
44 16 94 19 94 7z m-3501 -16 c9 -10 9 -16 1 -21 -16 -10 -40 2 -40 20 0 19
24 20 39 1z m4233 -27 c-24 -11 -53 -19 -64 -17 -21 3 -21 4 -4 21 12 11 32
17 64 16 l47 -1 -43 -19z m-4805 -76 c3 -34 0 -54 -11 -68 -16 -20 -16 -20
-22 3 -4 14 -13 22 -23 20 -12 -3 -16 -16 -16 -58 l0 -55 -33 -3 c-65 -6 -66
0 -21 90 23 46 52 98 66 116 23 30 27 32 41 19 8 -9 17 -37 19 -64z m4153 -33
c29 -90 25 -134 -41 -393 -27 -109 -55 -235 -61 -280 -7 -54 -18 -91 -32 -110
-20 -27 -21 -41 -21 -220 0 -159 3 -198 17 -229 21 -47 42 -48 94 -7 32 25 40
28 42 14 7 -32 -77 -115 -116 -115 -16 0 -438 256 -617 375 -169 111 -285 199
-285 214 0 4 27 39 61 77 79 89 102 131 129 229 34 128 51 159 112 199 29 19
68 47 86 62 38 31 53 26 26 -9 -91 -115 -114 -152 -114 -178 0 -50 -2 -51 215
145 128 116 238 202 295 232 52 26 174 72 181 68 4 -2 17 -35 29 -74z m739 10
c70 -32 160 -102 237 -182 70 -74 86 -103 113 -204 6 -23 33 -72 61 -109 58
-79 182 -284 206 -340 15 -37 15 -40 -1 -50 -95 -56 -235 -154 -300 -208 l-80
-67 -115 121 c-63 67 -148 163 -188 213 -94 117 -352 500 -368 547 -13 37 -4
101 24 172 13 32 20 33 38 10 11 -17 14 -16 33 9 36 45 187 106 266 107 17 0
50 -8 74 -19z m-515 -63 c14 -17 17 -31 12 -65 -8 -57 -21 -80 -52 -88 -58
-15 -112 71 -83 132 27 55 85 65 123 21z m-4314 -37 c0 -5 -14 -10 -31 -10
-17 0 -28 4 -24 10 3 6 17 10 31 10 13 0 24 -4 24 -10z m337 -202 c21 -17 4
-28 -43 -28 -25 0 -65 -5 -90 -11 -53 -14 -75 -2 -46 25 36 32 146 41 179 14z
m3965 -65 c20 -21 77 -96 128 -168 125 -175 265 -354 395 -505 161 -186 169
-214 103 -377 -38 -96 -41 -97 -154 -62 -215 66 -462 187 -539 265 -148 147
-172 376 -75 703 38 126 64 181 88 181 10 0 34 -17 54 -37z m-1232 -325 c-24
-19 -41 -20 -42 -3 -1 13 43 35 56 28 5 -3 -1 -15 -14 -25z m-3618 -155 c28
-31 88 -149 88 -171 0 -25 -22 -27 -99 -13 -55 11 -63 24 -56 86 12 105 33
136 67 98z m-557 -72 c63 -28 69 -41 40 -84 -30 -43 -111 -107 -136 -107 -52
0 -229 -302 -334 -570 -88 -225 -114 -483 -66 -655 33 -119 78 -201 147 -272
200 -204 526 -200 834 9 36 24 86 58 111 76 56 38 75 42 58 11 -7 -14 -10 -54
-7 -108 5 -95 29 -162 72 -206 23 -23 31 -25 73 -19 44 5 50 3 75 -23 33 -34
58 -101 58 -154 0 -133 70 -273 161 -319 47 -24 86 -71 99 -118 5 -20 19 -52
30 -70 24 -39 21 -46 -28 -71 -136 -69 -378 -98 -408 -49 -11 17 18 33 132 74
58 20 103 38 101 40 -2 2 -38 -3 -81 -11 -43 -8 -108 -15 -144 -15 -124 0
-123 29 5 91 108 52 89 62 -37 19 -89 -31 -144 -40 -157 -27 -14 14 32 47 107
77 85 34 129 67 74 55 -16 -4 -60 -16 -99 -27 -80 -24 -225 -31 -232 -11 -6
16 63 50 134 67 57 13 169 63 161 72 -3 2 -107 -26 -233 -62 -221 -63 -355
-115 -363 -141 -5 -18 43 -17 104 2 55 17 110 20 118 6 9 -13 -23 -36 -96 -69
-38 -17 -68 -36 -68 -41 0 -16 12 -14 93 14 94 33 187 44 187 22 0 -17 -10
-22 -94 -51 -33 -12 -61 -26 -63 -33 -8 -24 38 -23 112 2 88 29 150 33 159 9
10 -25 -8 -39 -74 -59 -59 -18 -90 -39 -76 -52 3 -4 46 1 95 11 77 16 92 16
117 5 22 -11 30 -22 32 -47 3 -27 -4 -39 -46 -80 -94 -91 -304 -191 -512 -244
-89 -22 -153 -31 -282 -38 -242 -14 -380 -46 -539 -126 -340 -170 -563 -495
-780 -1131 -69 -205 -100 -269 -139 -291 -16 -9 -31 -26 -32 -36 -4 -25 -50
-38 -110 -31 -52 6 -64 -3 -43 -31 8 -10 15 -27 15 -38 0 -16 -5 -17 -37 -12
-78 13 -76 14 -93 -34 -15 -43 -18 -45 -53 -44 -33 1 -37 -1 -35 -20 4 -29
-30 -32 -134 -11 -115 23 -168 48 -168 77 0 27 49 134 82 179 23 31 84 69 113
69 23 0 18 -25 -20 -110 -19 -43 -35 -92 -35 -110 0 -35 24 -70 47 -70 14 0
16 8 13 58 -4 69 64 135 181 175 52 18 68 30 94 67 18 25 41 46 53 48 26 4 28
23 7 82 -29 81 -27 86 117 297 99 146 192 340 348 728 29 72 68 161 87 199 19
38 54 129 78 203 50 154 83 216 127 239 17 9 76 20 134 25 205 18 435 135 683
349 111 96 121 101 231 129 145 38 600 215 600 234 0 10 -120 -24 -419 -119
-253 -81 -294 -87 -299 -43 -4 32 5 37 196 99 160 53 295 109 276 116 -9 4
-283 -71 -336 -91 -21 -8 -21 -5 -8 29 7 19 6 29 -6 41 -14 14 -8 19 63 50
146 65 161 74 134 74 -24 1 -316 -74 -413 -105 -79 -26 -60 -38 47 -30 52 4
95 5 95 2 0 -7 -224 -187 -345 -277 -117 -87 -250 -158 -350 -188 -38 -11
-145 -34 -236 -51 -246 -45 -337 -78 -409 -150 -97 -97 -140 -264 -170 -655
-21 -274 -41 -379 -86 -447 -32 -50 -71 -68 -157 -75 -41 -3 -79 -12 -89 -20
-12 -11 -28 -13 -58 -8 l-41 7 7 -38 7 -38 -24 17 c-35 25 -47 30 -64 23 -12
-4 -13 -11 -5 -31 6 -15 10 -28 10 -31 0 -10 -34 -2 -70 16 -53 27 -57 26 -52
-15 4 -31 2 -35 -19 -35 -43 1 -89 53 -89 102 0 48 50 131 120 200 81 79 103
86 99 31 -1 -21 -1 -44 0 -50 2 -18 36 -16 73 3 40 21 136 111 153 144 7 14
31 102 54 195 39 167 58 290 81 530 7 66 23 174 37 240 18 89 26 170 32 315 4
108 12 204 19 216 7 13 32 26 74 38 87 23 257 109 310 156 33 28 51 56 70 107
59 152 61 165 63 388 2 175 6 225 24 300 66 274 217 565 425 812 243 291 479
423 631 354z m3699 -82 c-54 -57 -152 -129 -175 -129 -36 0 -20 26 52 84 52
40 151 97 158 90 3 -2 -13 -23 -35 -45z m2886 41 c0 -20 -105 -69 -118 -55 -6
6 89 65 105 65 7 0 13 -4 13 -10z m-6293 -46 c4 -11 -14 -35 -59 -78 -36 -33
-80 -83 -98 -109 -51 -77 -109 -210 -137 -315 -23 -85 -26 -118 -27 -262 -1
-204 16 -268 95 -354 90 -99 50 -96 -55 3 -71 68 -79 84 -97 186 -45 257 38
614 194 838 60 86 166 138 184 91z m6403 -61 c17 -14 64 -74 102 -132 102
-152 154 -219 209 -273 40 -37 49 -52 49 -80 0 -47 -75 -151 -159 -220 -29
-25 -41 -28 -104 -28 -106 0 -130 16 -197 127 -69 115 -107 156 -173 189 -28
15 -67 38 -85 52 -30 23 -37 24 -65 14 -43 -16 -50 -4 -27 43 62 126 310 335
397 335 12 0 36 -12 53 -27z m-4834 -47 c-29 -49 -132 -166 -147 -166 -18 0
-8 20 37 75 25 31 43 59 40 62 -3 3 -23 -6 -43 -21 -21 -15 -60 -42 -86 -61
-49 -35 -115 -59 -145 -53 -31 6 -24 37 17 78 23 23 41 47 41 55 0 22 33 35
88 35 61 0 159 18 192 35 14 7 27 12 29 10 2 -2 -8 -24 -23 -49z m-1456 -40
c0 -8 -27 -40 -59 -71 -72 -69 -125 -165 -146 -264 -21 -101 -19 -140 14 -274
31 -129 38 -140 126 -203 51 -37 66 -54 47 -54 -5 0 -36 17 -68 38 -141 91
-214 230 -214 407 0 87 12 140 58 253 35 89 47 101 137 147 75 37 105 43 105
21z m303 -34 c45 -21 93 -48 106 -59 l25 -20 -27 -18 c-57 -37 -133 -17 -235
65 -33 26 -52 48 -52 62 0 19 4 20 50 15 28 -3 87 -24 133 -45z m4457 28 c0
-21 -44 -49 -57 -37 -3 4 -1 18 5 32 14 31 52 35 52 5z m-3862 -66 c32 -9 24
-37 -13 -45 -17 -4 -54 -7 -83 -8 -81 -2 -161 40 -99 52 35 7 170 7 195 1z
m-374 -26 c29 -41 15 -51 -24 -20 -13 11 -20 24 -16 30 11 18 23 15 40 -10z
m-1008 -34 c-4 -19 -21 -79 -37 -132 -85 -276 -73 -529 31 -692 88 -137 249
-205 427 -180 41 5 91 10 111 10 l37 -1 -22 -18 c-33 -27 -182 -79 -264 -92
-121 -19 -247 16 -333 91 -50 44 -95 119 -123 208 -22 66 -26 95 -25 202 0
184 38 338 133 538 50 105 77 132 65 66z m5344 8 c0 -5 -13 -18 -30 -30 -31
-23 -41 -62 -15 -62 8 0 31 11 51 25 20 14 40 23 42 20 6 -6 -88 -105 -99
-105 -4 0 -17 8 -29 18 -29 24 -22 57 21 107 29 32 59 46 59 27z m934 2 c14
-6 24 -44 11 -44 -17 0 -75 31 -75 39 0 12 39 15 64 5z m-5684 -45 c0 -7 -10
-27 -22 -47 -17 -28 -19 -38 -10 -53 17 -27 16 -37 -23 -126 -19 -44 -46 -122
-60 -173 -13 -52 -29 -98 -34 -103 -26 -26 -50 138 -32 224 20 97 181 344 181
278z m501 -15 c5 -15 7 -30 3 -33 -7 -7 -34 28 -34 46 0 23 20 14 31 -13z
m574 -8 c23 -35 29 -139 14 -241 -19 -133 -18 -161 5 -157 35 6 9 -23 -110
-123 -65 -56 -126 -115 -136 -134 -9 -18 -24 -41 -34 -52 -17 -18 -16 -19 12
-20 16 0 38 -4 49 -9 17 -7 14 -11 -28 -30 -51 -23 -201 -39 -251 -26 -36 9
-34 41 10 146 51 121 73 185 90 265 41 185 160 344 293 391 52 19 69 17 86
-10z m3883 -55 c69 -40 230 -111 254 -111 23 0 183 -76 232 -109 26 -18 44
-37 39 -41 -25 -24 -393 59 -515 117 -88 41 -128 80 -128 123 0 72 24 76 118
21z m-4631 -122 c-4 -70 -12 -93 -28 -84 -10 7 -12 127 -2 164 6 23 7 23 20 5
11 -14 14 -38 10 -85z m5261 23 c-11 -31 -24 -61 -29 -66 -28 -31 -18 53 12
103 30 50 41 27 17 -37z m124 -69 c17 -113 14 -133 -23 -133 -11 0 -29 10 -40
21 -19 19 -21 29 -16 86 7 68 32 133 51 133 8 0 18 -39 28 -107z m-5500 73
c31 -69 -78 -274 -187 -351 -76 -54 -138 -57 -101 -4 9 13 16 41 16 62 0 43
46 167 89 242 26 46 32 50 82 61 81 17 88 16 101 -10z m318 -63 c0 -42 -46
-250 -69 -317 -38 -108 -125 -229 -275 -384 -91 -94 -124 -117 -179 -125 l-39
-6 59 38 c70 46 148 127 198 207 43 69 60 84 92 84 20 0 23 5 23 40 0 23 7 52
16 65 8 13 22 54 30 91 8 42 29 92 54 134 26 43 44 87 50 124 5 31 12 61 15
66 12 19 25 10 25 -17z m85 -85 c-15 -169 -67 -323 -149 -447 -41 -62 -106
-126 -106 -105 0 4 26 48 59 98 109 169 140 250 182 464 6 34 14 62 16 62 3 0
2 -33 -2 -72z m650 37 c-64 -37 -113 -48 -84 -20 17 17 105 54 129 54 8 0 -12
-15 -45 -34z m4551 11 c7 -31 2 -58 -13 -63 -15 -5 -26 32 -19 63 8 31 24 31
32 0z m158 -17 c14 -17 26 -39 26 -49 0 -20 49 -88 111 -157 43 -47 48 -63 21
-63 -35 0 -172 166 -172 208 0 8 -9 25 -20 39 -42 54 -10 75 34 22z m-4634
-59 c0 -14 -35 -30 -64 -30 -34 0 -33 16 2 28 36 14 62 14 62 2z m60 -38 c0
-31 -249 -217 -266 -199 -8 8 48 86 94 130 25 25 60 45 98 57 70 22 74 22 74
12z m4552 -171 l53 -49 -21 -28 c-33 -44 -69 -67 -94 -59 -24 7 -160 132 -160
146 0 5 22 9 48 9 27 0 57 6 68 15 31 24 50 18 106 -34z m-5628 4 c-10 -25
-103 -93 -168 -124 -74 -35 -157 -54 -188 -42 -20 7 -18 9 17 15 72 14 146 48
233 107 88 60 116 71 106 44z m-695 -73 c43 -42 100 -89 128 -104 58 -32 151
-58 208 -58 104 0 111 -26 19 -71 -123 -61 -242 -35 -339 74 -62 68 -135 213
-117 231 12 13 27 3 101 -72z m-509 8 c0 -16 -4 -32 -10 -35 -6 -4 -10 10 -10
35 0 25 4 39 10 35 6 -3 10 -19 10 -35z m1820 -70 c0 -5 -14 -10 -31 -10 -17
0 -28 4 -24 10 3 6 17 10 31 10 13 0 24 -4 24 -10z m-1774 -142 c80 -160 198
-256 360 -294 89 -21 244 -14 332 14 67 22 78 21 34 -2 -86 -45 -329 -93 -407
-82 -57 9 -112 47 -218 149 -71 69 -94 99 -121 158 -38 83 -55 149 -37 149 6
0 32 -41 57 -92z m-66 -150 c120 -214 368 -321 609 -262 36 9 113 40 171 69
117 59 179 80 194 65 12 -12 -11 -40 -33 -40 -9 0 -52 -29 -96 -65 -44 -36
-88 -65 -99 -65 -11 0 -49 -12 -85 -27 -55 -22 -86 -27 -183 -31 -134 -5 -228
11 -323 57 -142 67 -215 182 -215 335 1 69 1 69 60 -36z m1407 -679 c13 -11
18 -10 34 10 11 13 22 22 24 19 10 -10 58 -318 51 -325 -10 -10 -61 49 -86 98
-26 49 -60 175 -60 220 0 45 14 61 18 21 2 -17 10 -36 19 -43z m-1157 -249 c0
-71 -442 -371 -647 -439 -34 -12 -86 -21 -116 -21 -106 0 -194 -45 -231 -119
-8 -14 -66 -158 -131 -320 -64 -161 -135 -334 -157 -383 -56 -122 -65 -104
-49 106 29 382 79 629 142 710 42 54 120 78 380 116 261 39 428 106 606 243
119 91 203 135 203 107z m1415 -440 c38 -15 26 -32 -35 -53 -111 -37 -265 -41
-265 -7 0 45 224 89 300 60z m100 -121 c44 -41 57 -69 33 -69 -21 0 -221 47
-252 59 -18 7 -26 15 -20 21 14 14 82 28 142 29 48 1 56 -2 97 -40z m-3555
-825 c0 -3 -13 -24 -29 -47 -30 -44 -98 -178 -121 -237 -18 -48 -39 -70 -65
-70 -56 0 -57 68 -3 178 41 82 102 149 153 167 43 15 65 18 65 9z m5506 -2519
c19 -15 19 -15 -5 -35 -13 -12 -31 -19 -40 -18 -23 5 -26 39 -5 55 23 16 26
16 50 -2z"/>
<path d="M6120 10961 c0 -12 46 -48 72 -57 45 -14 47 34 2 55 -30 13 -74 15
-74 2z"/>
<path d="M5380 10431 c0 -5 24 -21 53 -34 70 -34 269 -109 273 -104 3 2 -5 16
-17 30 -26 34 -89 71 -164 97 -60 21 -145 27 -145 11z"/>
<path d="M6170 10557 c-25 -13 -27 -23 -14 -64 6 -20 3 -23 -25 -23 -17 0 -31
-4 -31 -8 0 -11 71 -77 98 -92 18 -9 27 -9 38 1 18 15 18 78 -1 99 -13 15 -11
16 33 16 41 -1 47 2 50 21 7 46 -91 79 -148 50z"/>
<path d="M6354 10407 c-3 -10 -4 -44 0 -74 6 -54 5 -58 -21 -80 -27 -22 -28
-23 -9 -38 23 -17 45 -19 80 -5 20 7 26 17 26 39 0 34 -32 127 -54 157 -14 18
-15 18 -22 1z"/>
<path d="M6616 8181 c-11 -16 1 -29 47 -53 94 -47 227 -82 227 -59 0 44 -253
147 -274 112z"/>
<path d="M7890 7447 c-81 -64 -180 -167 -180 -188 0 -30 15 -30 63 1 93 58
197 171 197 212 0 28 -20 22 -80 -25z"/>
<path d="M8080 7138 c-33 -78 -130 -381 -124 -390 11 -17 24 -7 44 32 20 39
120 370 120 397 0 29 -19 10 -40 -39z"/>
<path d="M7910 6670 c0 -5 16 -10 35 -10 19 0 35 5 35 10 0 6 -16 10 -35 10
-19 0 -35 -4 -35 -10z"/>
<path d="M7713 6405 c-10 -27 43 -125 68 -125 16 0 9 51 -13 91 -24 43 -46 56
-55 34z"/>
<path d="M7630 6284 c0 -31 31 -176 41 -196 27 -50 38 7 18 91 -12 55 -59 137
-59 105z"/>
<path d="M7525 6140 c-4 -6 5 -48 20 -93 42 -132 56 -167 66 -167 24 0 -5 159
-41 230 -21 40 -33 49 -45 30z"/>
<path d="M5022 6005 c-86 -27 -161 -100 -147 -145 16 -49 121 -97 287 -130 79
-16 93 -6 102 67 3 32 9 81 12 108 5 44 3 53 -18 71 -48 44 -149 56 -236 29z
m157 -61 c33 -31 21 -40 -34 -24 -55 15 -74 34 -48 49 23 13 52 5 82 -25z
m-35 -104 c34 -12 36 -45 3 -36 -33 8 -97 35 -97 41 0 9 68 5 94 -5z"/>
<path d="M7450 5959 c0 -76 77 -319 101 -319 9 0 8 10 -13 95 -13 55 -79 255
-84 255 -2 0 -4 -14 -4 -31z"/>
<path d="M7327 5936 c-14 -36 72 -325 132 -445 28 -53 66 -99 76 -90 2 3 -23
72 -57 154 -73 180 -118 311 -118 341 0 45 -21 71 -33 40z"/>
<path d="M4814 5836 c-3 -8 -4 -27 -2 -43 2 -22 9 -29 31 -31 24 -3 27 0 27
25 -1 47 -43 84 -56 49z"/>
<path d="M6134 5775 c-38 -25 -86 -50 -106 -55 -28 -8 -38 -16 -38 -30 0 -14
7 -20 23 -20 38 0 217 116 217 140 0 19 -28 9 -96 -35z"/>
<path d="M7240 5752 c0 -50 105 -287 154 -347 66 -82 29 40 -72 238 -63 122
-82 148 -82 109z"/>
<path d="M4943 5724 c-3 -8 -1 -20 5 -26 16 -16 42 -2 42 22 0 24 -38 28 -47
4z"/>
<path d="M7702 5709 c-17 -27 -29 -125 -14 -115 12 7 37 107 31 125 -2 6 -10
2 -17 -10z"/>
<path d="M6240 5691 c-92 -30 -204 -91 -191 -104 23 -23 277 74 289 111 5 17
-32 15 -98 -7z"/>
<path d="M5080 5670 c-6 -12 -8 -30 -5 -41 7 -20 8 -20 36 7 16 15 29 34 29
41 0 21 -48 15 -60 -7z"/>
<path d="M5202 5648 c-18 -18 -15 -40 6 -36 9 2 18 13 20 26 4 24 -7 29 -26
10z"/>
<path d="M7130 5623 c0 -28 205 -261 218 -248 10 10 -65 119 -128 186 -58 62
-90 84 -90 62z"/>
<path d="M6200 5546 c-65 -18 -130 -54 -130 -71 0 -20 13 -19 127 11 105 28
140 47 113 64 -20 13 -54 11 -110 -4z"/>
<path d="M7730 5423 c0 -17 11 -75 25 -129 44 -170 56 -261 49 -351 -4 -51 -3
-83 3 -83 34 0 96 120 95 185 0 28 6 45 19 55 12 10 23 36 28 68 5 34 16 60
31 74 19 18 22 28 18 69 -3 27 -11 55 -18 64 -11 13 -15 12 -36 -10 -13 -14
-33 -25 -45 -25 -21 0 -22 -3 -16 -67 l6 -68 -45 49 c-52 56 -84 114 -84 149
0 14 -7 30 -15 37 -13 11 -15 8 -15 -17z"/>
<path d="M6156 5404 c-58 -21 -71 -34 -52 -53 14 -13 23 -13 62 -3 49 13 104
47 104 63 0 14 -69 10 -114 -7z"/>
<path d="M6225 4550 c8 -13 95 -13 115 0 10 7 -5 10 -53 10 -43 0 -66 -4 -62
-10z"/>
<path d="M6215 4470 c3 -5 35 -10 70 -10 35 0 67 5 70 10 4 6 -22 10 -70 10
-48 0 -74 -4 -70 -10z"/>
<path d="M6630 4057 c-81 -54 -132 -120 -317 -412 -168 -266 -242 -374 -364
-537 -104 -139 -156 -226 -195 -327 -16 -41 -43 -89 -60 -107 l-31 -34 -149 2
c-152 2 -194 -6 -194 -37 0 -19 40 -19 88 0 37 15 36 14 -18 -34 l-55 -50 39
-40 c51 -52 91 -66 148 -51 120 32 232 149 300 315 39 94 86 172 213 350 58
82 143 210 187 285 45 74 105 170 134 212 29 42 68 106 88 141 53 95 58 98
183 108 117 8 186 28 338 97 115 52 148 58 215 38 114 -34 157 -11 78 41 -37
25 -50 28 -122 27 -74 0 -93 -5 -221 -56 -162 -65 -222 -84 -299 -93 -44 -6
-56 -4 -56 6 1 15 35 62 108 148 24 28 40 51 35 51 -5 0 -38 -19 -73 -43z"/>
<path d="M5745 2340 c-11 -18 75 -48 282 -101 200 -50 353 -72 353 -51 0 19
-309 103 -539 146 -99 19 -88 18 -96 6z"/>
<path d="M5610 2251 c0 -25 246 -103 634 -201 274 -69 441 -99 458 -82 19 19
-42 38 -417 133 -192 48 -412 104 -488 123 -141 37 -187 43 -187 27z"/>
<path d="M8484 7942 c-104 -125 -268 -401 -250 -419 12 -13 45 32 121 167 43
74 97 163 121 197 24 34 47 69 50 77 11 28 -10 17 -42 -22z"/>
<path d="M9698 7959 c-27 -15 -22 -28 15 -44 42 -17 53 -31 61 -76 8 -46 34
-69 85 -76 51 -7 73 9 65 44 -6 22 -4 24 13 19 30 -10 48 16 32 45 -30 56
-115 99 -196 99 -32 0 -66 -5 -75 -11z"/>
<path d="M9710 7740 c0 -43 77 -134 104 -124 19 7 40 50 33 69 -10 24 -137 76
-137 55z"/>
<path d="M2755 5399 c-34 -33 -77 -86 -93 -117 -48 -90 -91 -271 -72 -302 8
-13 14 -12 47 6 21 11 37 26 35 34 -2 7 4 30 13 52 8 21 15 63 15 92 0 64 14
100 73 186 88 130 83 146 -18 49z"/>
<path d="M4553 5165 c-156 -29 -457 -117 -535 -156 -92 -47 -7 -53 114 -9 45
17 91 30 102 30 11 0 38 9 60 20 23 11 77 27 121 36 82 17 215 70 215 85 0 5
-1 9 -2 8 -2 -1 -36 -7 -75 -14z"/>
<path d="M2370 5051 c-22 -41 -9 -101 22 -101 24 0 52 62 44 96 -8 30 -51 33
-66 5z"/>
<path d="M2530 4888 l-35 -23 27 -3 c33 -4 68 13 68 33 0 21 -19 19 -60 -7z"/>
<path d="M2948 4413 c-60 -67 -72 -108 -42 -151 22 -32 44 -12 44 39 0 41 27
79 54 79 20 0 29 16 21 40 -9 29 -47 25 -77 -7z"/>
<path d="M10588 6905 c-4 -4 4 -23 19 -41 16 -22 27 -51 30 -82 7 -81 12 -92
47 -109 45 -21 97 -11 135 27 62 63 46 146 -36 182 -48 21 -181 37 -195 23z"/>
<path d="M5301 10076 c-37 -45 -65 -283 -34 -293 19 -7 31 27 47 130 25 150
20 203 -13 163z"/>
<path d="M6500 9877 c0 -36 73 -76 201 -111 99 -28 198 -136 214 -235 5 -27
17 -54 32 -69 14 -14 29 -37 32 -51 9 -33 36 -49 59 -35 29 19 25 48 -13 93
-35 43 -39 54 -49 123 -10 78 -71 126 -288 225 -160 73 -188 82 -188 60z"/>
<path d="M5784 9751 c-31 -19 -104 -98 -104 -113 0 -21 -73 -120 -148 -201
-45 -49 -82 -95 -82 -103 0 -26 63 -17 99 15 56 50 158 84 373 125 130 25 275
108 266 153 -6 30 -31 25 -101 -21 -49 -32 -88 -49 -145 -61 -87 -19 -206 -49
-239 -60 -19 -6 -23 -4 -23 14 0 31 42 118 94 195 25 38 45 70 43 72 -2 2 -16
-5 -33 -15z"/>
<path d="M6498 9613 c-18 -15 -73 -65 -122 -111 -49 -45 -121 -103 -160 -129
-89 -58 -142 -107 -167 -155 -40 -77 -10 -80 54 -5 25 29 89 84 143 123 111
78 209 165 266 237 56 71 49 91 -14 40z"/>
<path d="M6606 9540 c-36 -39 -87 -103 -113 -143 -115 -180 -157 -239 -237
-333 -47 -56 -97 -109 -111 -118 -25 -16 -35 -56 -14 -56 51 0 377 380 443
515 13 28 45 79 70 114 44 62 56 91 37 91 -5 0 -38 -32 -75 -70z"/>
<path d="M1220 7036 c0 -19 53 -63 99 -82 68 -30 309 1 419 53 28 13 52 29 52
35 0 12 -45 8 -180 -17 -91 -17 -168 -14 -275 11 -78 18 -115 18 -115 0z"/>
<path d="M1180 6935 c0 -22 33 -76 60 -99 86 -72 218 -116 350 -116 144 0 143
28 -3 50 -107 16 -174 41 -256 94 -103 66 -151 89 -151 71z"/>
<path d="M13 3305 c42 -31 390 -147 1082 -361 379 -117 475 -140 475 -115 0
12 -124 56 -440 156 -399 126 -1096 335 -1117 335 -17 -1 -17 -1 0 -15z"/>
<path d="M610 3281 c0 -19 107 -60 406 -156 315 -101 588 -181 647 -190 127
-19 -21 59 -200 105 -152 40 -588 169 -722 215 -109 37 -131 41 -131 26z"/>
<path d="M294 3052 c16 -26 464 -169 793 -253 159 -40 193 -46 193 -29 0 12
-123 51 -558 175 -389 112 -439 124 -428 107z"/>
<path d="M3160 2555 c14 -8 108 -42 210 -76 266 -88 333 -124 301 -163 -8 -9
-24 -16 -38 -16 -29 0 -210 45 -428 106 -173 49 -424 114 -439 114 -6 0 -6 -3
-1 -9 14 -13 154 -59 459 -151 148 -45 294 -91 325 -104 51 -20 56 -25 59 -55
4 -37 -20 -71 -50 -71 -20 0 -619 176 -905 266 -95 30 -181 54 -193 54 -37 0
-21 -18 35 -39 119 -45 816 -258 989 -303 96 -24 114 -40 131 -110 6 -25 4
-28 -17 -28 -14 0 -133 33 -264 74 -258 80 -647 192 -784 226 -47 11 -94 24
-105 27 -14 3 -17 2 -10 -5 14 -15 281 -104 695 -233 410 -128 494 -158 546
-200 45 -36 75 -34 88 4 9 24 6 31 -32 67 -46 45 -62 88 -62 170 0 65 20 100
56 100 29 0 30 7 4 40 -11 14 -20 31 -20 39 0 7 41 56 92 107 60 62 88 98 82
104 -14 14 -68 -3 -108 -33 -54 -41 -65 -41 -227 8 -188 58 -368 105 -394 105
-18 -1 -17 -2 5 -15z"/>
<path d="M5045 2460 c-8 -16 -40 -57 -70 -91 -30 -33 -57 -70 -61 -81 -10 -32
8 -39 43 -19 39 24 131 134 139 166 14 56 -25 75 -51 25z"/>
<path d="M1560 2370 c-23 -42 29 -143 90 -175 48 -25 123 -20 159 11 34 28 42
64 14 64 -10 0 -37 -7 -60 -15 -53 -18 -87 -7 -111 36 -52 95 -74 114 -92 79z"/>
<path d="M899 2327 c-18 -12 -56 -59 -84 -103 -27 -45 -62 -96 -77 -115 -38
-49 -50 -83 -34 -104 21 -29 58 -15 69 25 11 45 23 58 63 75 24 10 35 22 39
42 17 87 29 119 55 152 17 19 30 39 30 43 0 15 -27 8 -61 -15z"/>
<path d="M5237 2255 c-30 -15 -49 -32 -202 -169 -55 -48 -109 -92 -121 -96
-25 -10 -37 -45 -20 -59 28 -23 144 44 275 159 82 72 125 128 119 157 -4 23
-18 25 -51 8z"/>
<path d="M5590 1736 c0 -25 380 -136 490 -143 84 -6 85 -6 67 14 -9 11 -15 26
-12 34 4 11 -10 14 -67 15 -47 1 -128 14 -226 38 -159 38 -252 54 -252 42z"/>
<path d="M7760 1662 c0 -25 88 -72 135 -72 28 0 29 3 15 29 -17 33 -150 70
-150 43z"/>
<path d="M5450 1569 c-75 -13 -150 -49 -204 -99 -82 -76 -51 -95 48 -30 34 21
80 46 103 54 145 51 319 16 430 -87 50 -46 91 -72 100 -63 12 12 -9 55 -47 99
-51 58 -159 113 -250 127 -75 11 -104 11 -180 -1z"/>
<path d="M7535 1564 c52 -39 541 -164 642 -164 94 0 -22 40 -360 125 -222 56
-323 70 -282 39z"/>
<path d="M7099 1536 c15 -18 208 -81 460 -151 217 -59 282 -83 318 -117 30
-28 99 -45 283 -68 86 -11 212 -34 280 -51 142 -35 220 -49 220 -40 0 20 -327
122 -815 255 -700 190 -775 207 -746 172z"/>
<path d="M6775 1484 c-61 -31 -161 -103 -193 -137 -23 -24 -23 -25 -4 -31 25
-8 66 7 111 43 20 15 52 33 72 40 20 6 45 22 56 34 20 21 43 60 43 71 0 13
-38 4 -85 -20z"/>
<path d="M4895 1413 c6 -5 28 -15 50 -21 22 -6 62 -30 90 -53 l50 -41 85 7
c106 8 130 14 130 30 0 20 -24 25 -113 25 -70 0 -86 3 -118 25 -28 20 -54 27
-110 32 -47 3 -70 2 -64 -4z"/>
<path d="M2310 1241 c0 -14 19 -27 76 -51 204 -85 474 -142 474 -101 0 18 -29
31 -105 46 -43 9 -160 41 -259 71 -98 30 -181 54 -183 54 -1 0 -3 -9 -3 -19z"/>
<path d="M6725 663 c-237 -29 -401 -99 -465 -200 -29 -45 -40 -93 -21 -93 5 0
49 32 97 71 157 124 296 177 492 186 239 11 396 -61 437 -201 9 -31 23 -60 32
-64 8 -5 36 -7 62 -4 42 4 53 0 114 -42 37 -25 72 -46 78 -46 6 0 29 20 50 44
46 52 97 75 197 86 75 8 100 19 88 39 -12 20 -91 12 -191 -19 -174 -54 -245
-39 -388 84 -86 73 -143 105 -227 129 -101 29 -257 42 -355 30z"/>
<path d="M7725 621 c-42 -10 -86 -35 -109 -60 -23 -25 -15 -26 61 -6 74 19
183 19 258 0 164 -43 265 -152 290 -312 6 -41 21 -59 70 -88 12 -7 21 -31 27
-75 10 -79 22 -94 49 -61 25 31 25 100 -1 151 -11 22 -27 40 -36 40 -14 0 -25
20 -80 149 -66 155 -363 302 -529 262z"/>
</g>
</svg>
