<?xml version="1.0" standalone="no"?>
<!DOCTYPE svg PUBLIC "-//W3C//DTD SVG 20010904//EN"
 "http://www.w3.org/TR/2001/REC-SVG-20010904/DTD/svg10.dtd">
<svg version="1.0" xmlns="http://www.w3.org/2000/svg"
 width="995.000000pt" height="1024.000000pt" viewBox="0 0 995.000000 1024.000000"
 preserveAspectRatio="xMidYMid meet">
<metadata>
Created by potrace 1.16, written by Peter Selinger 2001-2019
</metadata>
<g transform="translate(0.000000,1024.000000) scale(0.100000,-0.100000)"
fill="#000000" stroke="none">
<path d="M5370 10211 c-75 -15 -145 -33 -157 -39 -31 -17 -83 -84 -145 -187
-34 -56 -67 -98 -87 -110 -84 -52 -186 -143 -296 -263 -65 -72 -131 -136 -145
-141 -56 -23 -238 -65 -280 -65 -25 -1 -69 2 -97 6 -39 5 -53 4 -53 -5 0 -7
24 -36 53 -64 41 -40 92 -71 243 -147 l192 -95 6 -323 c8 -399 10 -389 -95
-470 -41 -31 -99 -71 -131 -88 -53 -28 -58 -35 -86 -103 -16 -39 -40 -106 -52
-147 -12 -41 -29 -90 -38 -108 -28 -59 -7 -413 53 -908 14 -111 25 -235 25
-275 0 -79 -25 -209 -58 -299 -69 -193 -145 -386 -155 -392 -7 -4 -79 -8 -162
-8 -186 0 -457 -17 -550 -35 -107 -20 -368 -101 -438 -136 -109 -55 -335 -213
-572 -399 -126 -100 -248 -191 -270 -203 -65 -34 -221 -27 -575 28 -196 30
-392 39 -589 27 -125 -8 -163 -7 -200 4 -76 23 -86 20 -106 -31 -13 -35 -29
-54 -73 -84 -63 -43 -218 -199 -304 -306 -143 -179 -168 -261 -208 -680 -27
-280 -26 -310 15 -501 37 -173 50 -216 110 -379 20 -55 50 -148 66 -208 16
-59 44 -138 63 -175 19 -37 49 -129 69 -208 31 -126 40 -148 81 -203 25 -34
48 -78 52 -97 6 -35 35 -65 93 -96 17 -10 34 -24 37 -33 4 -9 -3 -49 -14 -88
-12 -40 -24 -93 -28 -119 l-6 -48 53 -25 c64 -29 86 -31 119 -8 13 10 47 25
74 34 92 29 91 24 93 377 1 189 5 318 12 334 10 28 11 28 45 12 46 -22 55 -48
67 -178 19 -207 16 -196 49 -196 20 0 35 8 45 24 27 41 54 218 70 469 4 61 11
95 16 90 5 -5 25 -83 44 -173 19 -90 41 -170 49 -178 19 -19 88 -9 147 21 43
22 129 116 129 141 0 7 -18 34 -40 59 -22 25 -40 50 -40 57 0 6 11 28 25 48
14 20 25 40 25 44 0 4 -19 12 -42 18 -78 20 -97 31 -107 64 -10 30 -115 514
-148 681 -28 143 -8 463 44 710 14 69 21 84 51 110 42 36 137 131 249 249 l82
86 88 0 c49 0 112 -3 142 -7 69 -8 69 -9 115 -283 81 -478 128 -571 548 -1074
127 -151 157 -193 152 -210 -20 -65 -72 -189 -118 -279 -65 -127 -136 -234
-271 -407 l-106 -135 5 -110 c3 -60 15 -177 27 -260 19 -132 22 -217 28 -696
l6 -547 31 -39 c30 -37 31 -40 17 -68 -8 -17 -28 -41 -45 -56 l-30 -25 27 -90
c14 -49 31 -100 38 -113 18 -36 77 -52 212 -58 118 -6 122 -5 200 26 44 18 81
34 83 36 2 1 -40 89 -93 194 -52 105 -102 220 -111 254 -22 88 -30 458 -15
672 20 274 44 384 120 550 63 135 145 244 167 222 3 -3 -4 -38 -15 -79 -12
-40 -26 -130 -32 -199 l-11 -126 25 -39 c62 -100 166 -331 242 -539 56 -154
92 -291 155 -590 56 -260 80 -330 129 -364 36 -26 35 -28 -6 -123 -22 -50 -24
-61 -13 -87 6 -16 21 -38 31 -47 16 -14 19 -26 14 -54 -10 -59 12 -74 147
-104 65 -14 148 -26 185 -26 109 0 303 53 303 82 0 8 -20 45 -44 85 -24 39
-49 88 -55 109 -9 33 -8 41 9 59 31 33 25 38 -40 32 l-60 -5 -45 51 c-58 65
-102 156 -111 227 -5 44 -14 63 -45 98 -70 80 -160 290 -196 456 -20 97 -29
580 -14 802 22 328 48 437 147 636 68 137 116 251 169 408 24 69 55 156 70
195 14 38 31 94 36 125 15 81 29 119 48 129 9 5 90 17 179 27 l162 18 137 -67
c229 -110 431 -154 725 -159 153 -3 169 -5 188 -23 14 -15 30 -68 56 -187 l37
-167 306 5 c384 6 462 14 564 59 l78 33 45 -69 c54 -83 70 -125 83 -221 27
-199 35 -446 35 -1093 0 -716 -5 -830 -49 -1030 l-24 -110 31 -48 c17 -26 45
-60 64 -75 l33 -27 -21 -60 c-17 -51 -19 -66 -9 -103 15 -56 14 -60 -10 -67
-11 -4 -19 -11 -17 -17 5 -15 113 -57 188 -74 80 -17 420 -20 420 -3 0 43
-127 262 -206 355 -81 94 -114 207 -114 391 0 110 19 299 41 398 6 28 31 118
55 201 58 201 68 250 109 556 40 303 68 455 101 551 28 81 60 137 80 137 25 0
63 -179 124 -580 29 -188 35 -213 75 -300 89 -194 130 -364 174 -721 17 -135
36 -260 42 -277 8 -23 33 -47 85 -83 41 -28 74 -55 74 -60 0 -30 -58 -123 -96
-154 -57 -47 -60 -79 -8 -101 66 -27 387 -104 436 -104 42 0 53 5 84 35 26 27
43 35 70 35 29 0 34 3 30 18 -3 9 -12 46 -21 81 -17 68 -47 134 -72 163 -9 10
-30 46 -47 80 -26 51 -41 68 -78 88 -43 23 -49 30 -76 105 -17 44 -51 126 -77
182 -56 122 -75 214 -106 488 -20 176 -23 266 -26 750 -3 303 0 715 5 916 l10
365 56 154 c93 250 104 307 150 729 9 79 20 139 28 147 11 10 40 7 158 -17
257 -54 611 -51 816 6 28 8 62 24 76 35 24 18 27 28 33 126 10 137 35 169 105
129 50 -29 176 -7 217 37 61 67 71 145 83 608 5 190 13 360 19 379 11 37 34
69 113 157 l55 61 6 119 c3 66 13 144 21 174 8 30 24 120 36 200 12 80 29 163
39 186 10 22 44 69 76 105 63 71 91 119 82 143 -5 13 -19 14 -85 9 -47 -3 -92
-1 -113 5 -19 6 -84 20 -144 31 -105 18 -123 25 -330 129 -403 201 -481 223
-907 257 -357 29 -465 16 -813 -99 -277 -92 -468 -181 -671 -314 -234 -154
-434 -330 -569 -503 -117 -148 -110 -145 -135 -57 -12 40 -35 119 -52 175 -30
98 -30 103 -14 136 28 61 22 93 -26 128 -57 40 -62 51 -43 96 21 50 43 72 88
90 64 26 59 75 -14 129 -35 25 -77 31 -109 14 -11 -6 -38 -43 -61 -83 -56 -95
-85 -125 -133 -138 -58 -16 -280 -59 -284 -55 -1 2 10 61 25 132 25 119 27
148 29 389 l2 260 28 8 c318 86 516 145 591 177 66 29 107 40 142 40 27 0 60
4 73 9 27 10 238 165 310 228 42 36 59 44 165 68 135 31 201 54 249 87 l34 23
0 106 c0 133 8 157 65 191 34 21 47 36 56 67 7 23 10 44 6 47 -7 7 -315 -14
-382 -27 -65 -12 -137 -48 -222 -110 -101 -74 -171 -103 -343 -144 -85 -21
-172 -41 -192 -46 -32 -8 -37 -14 -40 -41 -2 -19 -13 -38 -28 -49 -31 -23
-374 -88 -505 -96 -82 -5 -303 11 -315 23 -2 3 -6 55 -8 115 l-4 109 33 52 34
53 3 -33 c2 -20 12 -38 25 -46 48 -31 217 -85 299 -97 99 -14 118 -7 118 42 0
47 -18 78 -92 162 -82 93 -115 159 -124 243 -7 69 10 185 38 262 l20 53 46
-41 c26 -22 55 -47 64 -55 9 -7 22 -33 28 -57 25 -101 72 -188 101 -188 5 0
35 53 65 118 134 283 141 307 104 411 -10 31 -31 95 -45 143 -22 74 -30 90
-54 103 -33 16 -44 44 -62 148 -9 53 -19 78 -48 115 -21 26 -59 80 -87 121
-27 41 -57 86 -66 100 -10 14 -18 35 -18 47 0 11 -5 25 -12 32 -19 19 -123 13
-268 -17z m358 -3640 c67 -9 77 -13 130 -59 102 -90 160 -155 167 -191 4 -18
3 -32 -1 -30 -5 2 -58 29 -119 59 l-110 55 -130 0 -129 1 -13 44 c-20 68 -14
91 31 116 25 14 50 21 70 18 17 -2 64 -8 104 -13z m2720 -453 c17 -57 39 -134
48 -172 17 -67 21 -74 100 -150 l82 -81 37 -117 c20 -65 41 -142 48 -173 l11
-55 -34 -36 c-60 -61 -79 -67 -237 -68 -130 -1 -143 -3 -165 -23 -30 -28 -157
-39 -281 -24 -119 14 -150 30 -187 100 -35 64 -36 61 7 271 56 279 158 459
327 575 59 40 96 52 167 54 l46 1 31 -102z m382 -933 c0 -33 -4 -37 -45 -55
-47 -20 -333 -110 -350 -110 -8 0 380 197 393 199 1 1 2 -15 2 -34z m-50 -250
c0 -57 -3 -69 -27 -95 -24 -26 -40 -33 -113 -45 -224 -37 -270 -46 -284 -51
-12 -4 -21 6 -35 37 -11 24 -17 47 -14 52 7 12 42 24 173 63 63 18 153 49 200
68 47 19 88 35 93 36 4 0 7 -29 7 -65z m148 -185 c-3 -65 -3 -65 -43 -85 -48
-24 -161 -30 -315 -17 l-105 9 171 2 170 1 26 28 c45 49 58 78 65 148 l7 69
13 -45 c7 -25 12 -74 11 -110z"/>
</g>
</svg>
