<svg xmlns="http://www.w3.org/2000/svg" width="39.917" height="44.796" viewBox="0 0 39.917 44.796"><defs><style>.a{fill:#d0ddf0;}.b{fill:#7fa8f6;}.c{fill:#dfe3ee;}.d{fill:#fff;}.e{fill:#428dff;}</style></defs><g transform="translate(0 0)"><path class="a" d="M206.75,36.652a2.483,2.483,0,0,1-1.381.164,3.616,3.616,0,0,1-2.172-1.747c-.635-.978-1.329-1.926-1.919-2.919a12.531,12.531,0,0,1-1.985-6.42V10.547a2.042,2.042,0,0,0-.941-1.732,1.874,1.874,0,0,1,1.075-.254,1.949,1.949,0,0,1,1.732,1.986V25.731a12.535,12.535,0,0,0,1.986,6.42c.59.993,1.284,1.941,1.918,2.919a4,4,0,0,0,1.687,1.582Zm0,0" transform="translate(-181.004 -7.809)"/><path class="b" d="M283.888,358.947a.492.492,0,0,0-.082.052,22.746,22.746,0,0,1-2.672,1.71,3.624,3.624,0,0,0-1.9,3.18v7.45h-1.866v-7.45a3.624,3.624,0,0,1,1.9-3.18,22.151,22.151,0,0,0,2.672-1.71,1.7,1.7,0,0,1,1.926-.067C283.873,358.939,283.88,358.939,283.888,358.947Zm0,0" transform="translate(-253.11 -327.289)"/><path class="b" d="M380.373,139.5a1.4,1.4,0,0,0,.627,1.941,13.625,13.625,0,0,0,1.433.589,1.941,1.941,0,0,1-1.194,3.688c-.142-.045-.284-.09-.433-.134a1.909,1.909,0,0,0,1.037-1.344,1.941,1.941,0,0,0-1.276-2.21,14.327,14.327,0,0,1-1.434-.589,1.41,1.41,0,0,1-.627-1.941,10.294,10.294,0,0,0,.7-1.508,64.819,64.819,0,0,0,2.045-6.562c.291-1.112.56-2.225.821-3.344.254-1.09.732-2.284.351-3.4a1.94,1.94,0,0,0-.814-1.008,1.85,1.85,0,0,1,1.344-.246l.023.008a2.042,2.042,0,0,1,1.314,1.247c.374,1.112-.1,2.307-.351,3.4-.261,1.12-.53,2.232-.821,3.344a64.741,64.741,0,0,1-2.046,6.562,11.152,11.152,0,0,1-.7,1.508Zm0,0" transform="translate(-345.243 -112.605)"/><path class="c" d="M70.788,37.4a1.41,1.41,0,0,0,.627,1.941,14.335,14.335,0,0,0,1.433.589,1.941,1.941,0,0,1,1.276,2.21,1.909,1.909,0,0,1-1.037,1.344,13.8,13.8,0,0,1-2.949-1.336,1.674,1.674,0,0,0-1.836.015c-.008-.008-.015-.008-.023-.015a1.7,1.7,0,0,0-1.926.067,22.147,22.147,0,0,1-2.672,1.71,3.624,3.624,0,0,0-1.9,3.18v7.45H57.68V47.5A2.6,2.6,0,0,0,55.4,44.92c-.993-.127-2.4-.373-4.434-.821-4.867-1.083-8.167-6.465-9.615-9.353a2.181,2.181,0,0,1,.836-2.844l.045-.03a1.533,1.533,0,0,1,.187-.1,2.188,2.188,0,0,1,2.859.918c.172.314.5.881.866,1.471.074.127.149.246.224.373a.87.87,0,0,0,1.545-.127c.164-.411.321-.806.418-1.083a1.78,1.78,0,0,1,2.419-.978v.008a1.724,1.724,0,0,1,.925,1.9,10.966,10.966,0,0,1-2.015,2.941.865.865,0,0,0,.127,1.254,9.639,9.639,0,0,0,3.523,1.836,4.371,4.371,0,0,0,1.075.134,2.4,2.4,0,0,0,2.128-3.59,17.284,17.284,0,0,1-2.56-8.405V21.346A1.851,1.851,0,0,0,52.223,19.5a11.686,11.686,0,0,1-6.33-2.016,2.1,2.1,0,0,1-.239-3.165,1.925,1.925,0,0,1,.545-.388,2.1,2.1,0,0,1,2.336.313,6.888,6.888,0,0,0,2.882,1.486,7.737,7.737,0,0,0,1.03.187,1.363,1.363,0,0,0,1.5-1.359V13.12a1.866,1.866,0,0,1,.545-1.321,1.835,1.835,0,0,1,.381-.291,2.042,2.042,0,0,1,.941,1.732V28.423a12.531,12.531,0,0,0,1.985,6.42c.59.993,1.284,1.941,1.919,2.919a3.616,3.616,0,0,0,2.172,1.747,2.483,2.483,0,0,0,1.381-.164,1.616,1.616,0,0,0,.485.164,3.269,3.269,0,0,0,2.419-.739,10.165,10.165,0,0,0,3.449-3.628A21.449,21.449,0,0,0,70.7,32.477a1.878,1.878,0,0,0-1.06-2.359,10.242,10.242,0,0,1-5.054-4.793,2.091,2.091,0,0,1-.254-.993,2.041,2.041,0,0,1,1.142-1.844.679.679,0,0,1,.164-.082,2.091,2.091,0,0,1,2.553.866A8.571,8.571,0,0,0,70.445,25.8c.127.09.246.172.366.246a1.161,1.161,0,0,0,1.747-.754c.194-.926.351-1.777.478-2.463a1.825,1.825,0,0,1,.858-1.247,1.94,1.94,0,0,1,.814,1.008c.381,1.112-.1,2.307-.351,3.4-.261,1.12-.53,2.232-.821,3.344a64.823,64.823,0,0,1-2.045,6.562,10.293,10.293,0,0,1-.7,1.508Zm0,0" transform="translate(-37.525 -10.501)"/><path class="c" d="M356.652,360.267a1.9,1.9,0,0,1-1.434.134,13.923,13.923,0,0,1-3.352-1.456,1.674,1.674,0,0,1,1.836-.015A13.8,13.8,0,0,0,356.652,360.267Zm0,0" transform="translate(-321.089 -327.288)"/><path class="c" d="M311.718,10.845a2.239,2.239,0,1,1-2.24-2.24A2.239,2.239,0,0,1,311.718,10.845Zm0,0" transform="translate(-280.365 -7.853)"/><path class="c" d="M13.049,70.579a2.239,2.239,0,1,1-2.239-2.24A2.239,2.239,0,0,1,13.049,70.579Zm0,0" transform="translate(-7.824 -62.362)"/><path class="c" d="M387.022,61.3a1.493,1.493,0,1,1-1.493-1.493A1.493,1.493,0,0,1,387.022,61.3Zm0,0" transform="translate(-350.443 -54.577)"/><path class="c" d="M71.291,155.169a1.493,1.493,0,1,1-1.493-1.493A1.493,1.493,0,0,1,71.291,155.169Zm0,0" transform="translate(-62.333 -140.232)"/><path class="d" d="M181.693,13.04a7.752,7.752,0,0,0,1.03.187,1.363,1.363,0,0,0,1.5-1.359V10.428a1.865,1.865,0,0,1,.545-1.321,1.905,1.905,0,0,1,.2-.153,1.739,1.739,0,0,0-.985-.392,1.874,1.874,0,0,0-1.075.254,1.836,1.836,0,0,0-.381.291,1.866,1.866,0,0,0-.545,1.321v1.441a1.366,1.366,0,0,1-.555,1.092c.088.025.177.058.263.08Zm0,0" transform="translate(-165.561 -7.808)"/><path class="d" d="M89.191,37.051a2.09,2.09,0,0,0-2.056-.107,1.925,1.925,0,0,0-.545.388,2.1,2.1,0,0,0,.239,3.165,11.687,11.687,0,0,0,6.33,2.016,1.851,1.851,0,0,1,1.724,1.844v7.077a17.284,17.284,0,0,0,2.56,8.405,2.372,2.372,0,0,1-1.165,3.4c.067.019.134.041.2.057a4.369,4.369,0,0,0,1.075.134,2.4,2.4,0,0,0,2.128-3.59,17.276,17.276,0,0,1-2.56-8.405V44.357A1.851,1.851,0,0,0,95.4,42.513a11.687,11.687,0,0,1-6.33-2.016,2.1,2.1,0,0,1-.239-3.165,2.02,2.02,0,0,1,.362-.282Zm0,0" transform="translate(-78.46 -33.512)"/><path class="d" d="M59.92,263.746V256.7a2.6,2.6,0,0,0-2.284-2.583c-.993-.127-2.4-.373-4.434-.821-4.867-1.083-8.167-6.465-9.615-9.353a2.181,2.181,0,0,1,.836-2.844l.044-.029a2.165,2.165,0,0,0-2.052-.1,1.535,1.535,0,0,0-.187.1l-.045.03a2.181,2.181,0,0,0-.836,2.844c1.448,2.889,4.748,8.271,9.615,9.353,2.03.448,3.441.694,4.434.821A2.6,2.6,0,0,1,57.68,256.7v7.047Zm0,0" transform="translate(-37.525 -219.698)"/><path class="d" d="M46.218,283.7a11.125,11.125,0,0,1-4.581-2.371,19.228,19.228,0,0,1-3.37-3.739,28.609,28.609,0,0,1-2.17-3.639l1.335-.672a27.141,27.141,0,0,0,2.055,3.448,17.737,17.737,0,0,0,3.1,3.451,9.663,9.663,0,0,0,3.951,2.061Zm0,0" transform="translate(-32.943 -249.371)"/><g transform="translate(0 0)"><path class="e" d="M350.543,102.516a.456.456,0,0,0-.142.045.429.429,0,0,0-.127.067.761.761,0,0,0-.112.09.747.747,0,0,0,0,1.06.784.784,0,0,0,.112.09.429.429,0,0,0,.127.067.465.465,0,0,0,.142.045.885.885,0,0,0,.141.015.746.746,0,0,0,.53-1.276A.772.772,0,0,0,350.543,102.516Zm0,0" transform="translate(-319.332 -93.536)"/><path class="e" d="M120.164,206.368a.746.746,0,0,0,.007-1.493h-.007a.746.746,0,1,0,0,1.493Zm0,0" transform="translate(-108.974 -186.952)"/><path class="e" d="M87.445,341.737a.757.757,0,0,0-.761.738.81.81,0,0,0,.241.539.771.771,0,0,0,.548.224l.146-.023a.545.545,0,0,0,.141-.055.452.452,0,0,0,.123-.074,1.076,1.076,0,0,0,.11-.1.808.808,0,0,0,.191-.534.914.914,0,0,0-.067-.275A.719.719,0,0,0,87.445,341.737Zm0,0" transform="translate(-79.104 -311.843)"/><path class="e" d="M66.376,25.65a65.277,65.277,0,0,0,2.069-6.635c.293-1.12.563-2.24.825-3.365.047-.2.1-.4.155-.6a5.442,5.442,0,0,0,.178-3.2,2.818,2.818,0,0,0-1.808-1.727A.713.713,0,0,0,67.7,10.1a2.617,2.617,0,0,0-3.088,2.13c-.124.672-.277,1.5-.468,2.407a.419.419,0,0,1-.246.3.39.39,0,0,1-.369-.024,7.666,7.666,0,0,1-2.389-2.533,2.821,2.821,0,0,0-4.893,2.805,10.987,10.987,0,0,0,5.438,5.129,1.138,1.138,0,0,1,.623,1.427A20.57,20.57,0,0,1,61.277,24.3a9.367,9.367,0,0,1-3.2,3.343,2.621,2.621,0,0,1-1.866.626,2.877,2.877,0,0,1-1.686-1.418c-.238-.367-.485-.73-.731-1.092-.4-.588-.812-1.194-1.173-1.8a11.653,11.653,0,0,1-1.877-6.036V2.74A2.681,2.681,0,0,0,48.318.006a2.613,2.613,0,0,0-2.8,2.613V4.059a.631.631,0,0,1-.21.47.575.575,0,0,1-.461.149,6.342,6.342,0,0,1-3.5-1.493,2.839,2.839,0,1,0-3.576,4.4A12.435,12.435,0,0,0,44.49,9.747a1.107,1.107,0,0,1,1.032,1.1v7.077a18.09,18.09,0,0,0,2.661,8.78A1.581,1.581,0,0,1,48.2,28.32a1.707,1.707,0,0,1-1.5.851h-.012a7.652,7.652,0,0,1-4.126-1.813.124.124,0,0,1-.05-.088.115.115,0,0,1,.028-.09c1.978-2.3,2.131-3.034,2.182-3.272a2.469,2.469,0,0,0-1.22-2.666.738.738,0,0,0-.1-.063,2.488,2.488,0,0,0-2.023-.08,2.519,2.519,0,0,0-1.429,1.47c-.1.269-.248.659-.408,1.056a.114.114,0,0,1-.1.074.1.1,0,0,1-.114-.058c-.432-.7-.865-1.44-1.077-1.821A2.963,2.963,0,0,0,33,24.574a28.622,28.622,0,0,0,2.169,3.639c.149.209.294.42.453.623a.736.736,0,0,0,1.054.14.762.762,0,0,0,.138-1.038c-.149-.188-.285-.388-.425-.585a27.105,27.105,0,0,1-2.054-3.447,1.459,1.459,0,0,1,.6-1.9,1.413,1.413,0,0,1,1.1-.159,1.466,1.466,0,0,1,.908.7c.215.387.661,1.144,1.106,1.871a1.614,1.614,0,0,0,2.873-.24c.168-.414.324-.821.426-1.1a1.021,1.021,0,0,1,.581-.6.977.977,0,0,1,.737,0c.022.013.043.026.067.038a.978.978,0,0,1,.529,1.074,9.891,9.891,0,0,1-1.855,2.612,1.6,1.6,0,0,0-.381,1.211,1.622,1.622,0,0,0,.617,1.12,9.07,9.07,0,0,0,5.044,2.129H46.7a3.184,3.184,0,0,0,2.788-1.6,3.08,3.08,0,0,0-.019-3.111,16.627,16.627,0,0,1-2.458-8.031V10.845A2.606,2.606,0,0,0,44.59,8.256a10.973,10.973,0,0,1-5.932-1.871,1.345,1.345,0,1,1,1.709-2.077,7.805,7.805,0,0,0,4.312,1.85A2.079,2.079,0,0,0,46.3,5.644a2.126,2.126,0,0,0,.711-1.586V2.619A1.119,1.119,0,0,1,48.222,1.5a1.2,1.2,0,0,1,1.032,1.24V17.922a13.262,13.262,0,0,0,2.09,6.8c.382.644.808,1.269,1.221,1.877.24.355.481.708.715,1.068a4.253,4.253,0,0,0,2.655,2.071,3.961,3.961,0,0,0,2.975-.852,10.913,10.913,0,0,0,3.706-3.915,22.261,22.261,0,0,0,1.113-2.757,2.613,2.613,0,0,0-1.5-3.3,9.518,9.518,0,0,1-4.664-4.447,1.353,1.353,0,0,1-.165-.641A1.323,1.323,0,0,1,58.24,12.6a1.343,1.343,0,0,1,1.637.561,9.123,9.123,0,0,0,2.862,3.015,1.907,1.907,0,0,0,2.872-1.233c.193-.914.348-1.757.482-2.483a1.135,1.135,0,0,1,1.253-.912,1.309,1.309,0,0,1,.845.782,4.213,4.213,0,0,1-.206,2.334c-.059.22-.117.437-.166.65-.259,1.113-.527,2.219-.817,3.327a63.692,63.692,0,0,1-2.022,6.488,10.209,10.209,0,0,1-.654,1.4,2.116,2.116,0,0,0-.17,1.68,2.173,2.173,0,0,0,1.124,1.3,14.2,14.2,0,0,0,1.517.627,1.194,1.194,0,0,1-.739,2.266,13.123,13.123,0,0,1-3.2-1.387,2.435,2.435,0,0,0-2.762.1,21.355,21.355,0,0,1-2.583,1.655,4.368,4.368,0,0,0-2.29,3.835v6.7H50.747V37a3.359,3.359,0,0,0-2.934-3.324c-1.1-.141-2.571-.413-4.37-.811a9.086,9.086,0,0,1-2.526-1.045.772.772,0,0,0-1.014.239.728.728,0,0,0,.245,1.041,10.585,10.585,0,0,0,2.972,1.22c1.843.406,3.359.686,4.5.832A1.866,1.866,0,0,1,49.254,37v7.045A.747.747,0,0,0,50,44.8h5.972a.747.747,0,0,0,.747-.747V36.6a2.872,2.872,0,0,1,1.5-2.523,22.963,22.963,0,0,0,2.762-1.771.948.948,0,0,1,1.076-.029,14.6,14.6,0,0,0,3.562,1.552,2.687,2.687,0,0,0,1.654-5.108,12.919,12.919,0,0,1-1.354-.56.666.666,0,0,1-.35-.4.63.63,0,0,1,.052-.5,11.761,11.761,0,0,0,.751-1.605Zm0,0" transform="translate(-29.845 0)"/><path class="e" d="M301.689.074A2.986,2.986,0,1,0,303.8.949a2.986,2.986,0,0,0-2.111-.874Zm0,4.479a1.493,1.493,0,1,1,1.056-.437,1.493,1.493,0,0,1-1.056.437Zm0,0" transform="translate(-272.576 -0.068)"/><path class="e" d="M3.021,65.78A2.986,2.986,0,1,0,.035,62.794,2.986,2.986,0,0,0,3.021,65.78Zm0-4.479a1.493,1.493,0,1,1-1.493,1.493A1.493,1.493,0,0,1,3.021,61.3Zm0,0" transform="translate(-0.035 -54.576)"/><path class="e" d="M379.981,53.513a2.239,2.239,0,1,0-2.239,2.239,2.239,2.239,0,0,0,2.239-2.239Zm-2.986,0a.746.746,0,1,1,.747.746A.747.747,0,0,1,377,53.513Zm0,0" transform="translate(-342.657 -46.788)"/><path class="e" d="M64.249,147.38a2.239,2.239,0,1,0-2.239,2.239A2.239,2.239,0,0,0,64.249,147.38Zm-2.986,0a.746.746,0,1,1,.747.746A.747.747,0,0,1,61.263,147.38Zm0,0" transform="translate(-54.544 -132.444)"/></g></g></svg>