<svg xmlns="http://www.w3.org/2000/svg" width="37.298" height="39.573" viewBox="0 0 37.298 39.573"><defs><style>.a{fill:#7fa8f6;}.b{fill:#d0ddf0;}.c{fill:#9a9a9a;}.d{fill:#fff;}.e{fill:#428dff;}</style></defs><g transform="translate(-0.018 -0.001)"><path class="a" d="M303.176,428.488c.884.943,1.979,1.84,2.922,1.84,1.978,0,2.638,3.3-3.957,2.638a22.187,22.187,0,0,1-4.333-.765H297.8" transform="translate(-274.768 -395.371)"/><path class="a" d="M220.634,11.594c-.066.2-.145.429-.238.7a5.139,5.139,0,0,1-.917,1.642,4.494,4.494,0,0,1-1.471,1.161,5.933,5.933,0,0,1-2.17.442,5.209,5.209,0,0,0-2.15.468c-2.44,1.279-2.935,4.267-2.1,6.668,1.682,4.782,3.5,9.49,2.546,14.687a9.106,9.106,0,0,1-5.461,6.958,13.472,13.472,0,0,1-4.307.91c-1.477.105-2.974.072-4.419.105l-.343-.02c.831-.013,1.669-.027,2.5-.086a13.472,13.472,0,0,0,4.307-.91,9.106,9.106,0,0,0,5.461-6.958c.956-5.2-.864-9.906-2.546-14.687-.838-2.4-.343-5.388,2.1-6.668a5.209,5.209,0,0,1,2.15-.468,5.933,5.933,0,0,0,2.17-.442,4.494,4.494,0,0,0,1.471-1.161,5.139,5.139,0,0,0,.917-1.642c.1-.27.178-.5.238-.7a.65.65,0,0,0-.435-.831c-1.418-.415-4.814-1.4-6.232-1.7-.488-.105-.95-.191-1.378-.251a9.588,9.588,0,0,1,3.641.251c1.418.3,4.814,1.286,6.226,1.7a.653.653,0,0,1,.442.831Zm0,0" transform="translate(-184.165 -8.062)"/><path class="b" d="M42.057,12.454c-.059.2-.139.429-.238.7A5.139,5.139,0,0,1,40.9,14.8a4.493,4.493,0,0,1-1.471,1.161,5.933,5.933,0,0,1-2.17.442,5.209,5.209,0,0,0-2.15.468c-2.44,1.279-2.935,4.267-2.1,6.668,1.682,4.782,3.5,9.49,2.546,14.687A9.106,9.106,0,0,1,30.1,45.179a13.473,13.473,0,0,1-4.307.91c-.831.059-1.669.072-2.5.086l-7.07-.482c-2.678-.547-5.3-1.721-6.5-4.32C8.039,37.74,8.455,33.1,9.029,29.265c.416-2.776,1.135-7.353,2.777-9.675-.956-1.319-2.928-4.8-.251-8.329a9.221,9.221,0,0,1,.64-.745.664.664,0,0,1,.91-.02,6.422,6.422,0,0,1,2.1,5.434,8.66,8.66,0,0,1-.363,1.721c-.007.026-.02.053-.027.079a.588.588,0,0,1,.066-.059,7.607,7.607,0,0,1,3.9-2.13,6.47,6.47,0,0,1,4.056.594.66.66,0,0,1,.317.857,6.723,6.723,0,0,1-7.334,3.819q-.257-.03-.514-.079c-.026.046-.046.092-.072.138a14.136,14.136,0,0,0-1.187,7.294,5.144,5.144,0,0,0,4.1,4.379,5.813,5.813,0,0,0,1.8.066,13.037,13.037,0,0,0,3.245-.9c.29-.119.58-.231.864-.35l.5-.356c.125-.178.251-.356.376-.541.37-.554.739-1.134,1.095-1.754a33.666,33.666,0,0,0,2.915-8.857c.633-2.988.93-5.4.93-5.4A8.986,8.986,0,0,1,31,11.689a4.473,4.473,0,0,1,2.288-1.833,4.15,4.15,0,0,1,.725-.185c.429.059.891.145,1.378.251,1.418.3,4.814,1.286,6.232,1.7a.65.65,0,0,1,.435.831Zm0,0" transform="translate(-7.85 -8.923)"/><path class="c" d="M95.919,152.857c-.2.026-.389.046-.587.059.026-.046.046-.092.072-.138Q95.662,152.827,95.919,152.857Zm0,0" transform="translate(-87.947 -140.969)"/><path class="b" d="M113.082,409.629a.33.33,0,0,1,.313.435c-.552,1.566-2.821,6.819-8.433,6.819-6.5,0-.83-3.2,1.23-7.081a.321.321,0,0,1,.285-.174Zm0,0" transform="translate(-94.037 -377.969)"/><g transform="translate(0.018 1.402)"><path class="d" d="M348.849,26.948a1.319,1.319,0,1,1-1.319-1.319A1.319,1.319,0,0,1,348.849,26.948Zm0,0" transform="translate(-319.455 -25.049)"/><path class="d" d="M348.24,27a.659.659,0,0,1-1.26.27,1.335,1.335,0,0,1,.87-.87A.659.659,0,0,1,348.24,27Zm0,0" transform="translate(-320.165 -25.759)"/><path class="d" d="M16.818,53c-2.676-.547-3.918-1.228-5.118-3.825-1.682-3.634-1.266-8.27-.693-12.109.415-2.776,1.134-7.353,2.777-9.675-.956-1.319-2.928-4.8-.251-8.329.045-.059.1-.117.143-.176a6.747,6.747,0,0,0-.572-.589.664.664,0,0,0-.91.02,9.22,9.22,0,0,0-.64.745c-2.678,3.528-.706,7.01.251,8.329-1.642,2.322-2.361,6.9-2.777,9.675-.574,3.838-.989,8.475.693,12.109,1.2,2.6,3.825,3.771,6.5,4.319-.907,1.319-.186.644.6-.494Zm0,0" transform="translate(-7.869 -18.127)"/><path class="d" d="M312.146,475.525c-.186-.013-.378-.029-.577-.049a22.188,22.188,0,0,1-4.333-.765h-.007l.22-.152a13.212,13.212,0,0,1-1.575.326,26.415,26.415,0,0,0,3.715.594A13.874,13.874,0,0,0,312.146,475.525Zm0,0" transform="translate(-282.237 -439.283)"/><path class="d" d="M1.27,274.384A18.058,18.058,0,0,1,.093,265.65c.091-1.263.248-2.513.433-3.752l1.3.2c-.181,1.218-.335,2.434-.422,3.65a16.852,16.852,0,0,0,1.055,8.087Zm0,0" transform="translate(-0.018 -243.058)"/></g><path class="e" d="M356.066,34.823a.66.66,0,1,1-.66-.659A.66.66,0,0,1,356.066,34.823Zm0,0" transform="translate(-327.312 -31.523)"/><path class="e" d="M30.231,8.527a4.947,4.947,0,0,1,1.931-.4,6.242,6.242,0,0,0,2.374-.505A5.147,5.147,0,0,0,36.224,6.3a5.9,5.9,0,0,0,1.032-1.847c.371-1.059.423-1.267.439-1.335a.736.736,0,0,0-.4-.847.659.659,0,0,0-.231-.038l-1.483-.439c-2.023-.6-3.771-1.124-5.239-1.44A8.48,8.48,0,0,0,25.611.315,5.166,5.166,0,0,0,22.994,2.4a9.49,9.49,0,0,0-1.2,2.968.621.621,0,0,0-.015.078c0,.024-.307,2.42-.927,5.342a32.1,32.1,0,0,1-2.838,8.668A25.8,25.8,0,0,1,16.484,21.8a.677.677,0,0,0-.123.024,15.09,15.09,0,0,1-3.931,1.2,4.536,4.536,0,0,1-5.184-3.9,13.513,13.513,0,0,1,1-6.6,9.323,9.323,0,0,0,1.244.1,7.369,7.369,0,0,0,7.066-4.855.672.672,0,0,0,.047-.245c0-.273,0-.532-1.308-1.09a7.063,7.063,0,0,0-6.89.68A7.2,7.2,0,0,0,5.529.635.66.66,0,0,0,4.717.7C.423,4.693,2.46,8.988,3.566,10.681,1.979,13.271,1.3,17.768.928,20.244.743,21.484.586,22.733.495,24l-.04.673a.66.66,0,0,0,.634.692.669.669,0,0,0,.684-.626l.038-.645c.088-1.215.241-2.431.422-3.649.375-2.5,1.069-7.143,2.66-9.39,0-.007.005-.015.01-.021a.624.624,0,0,0,.057-.132A.649.649,0,0,0,5,10.791a.684.684,0,0,0,0-.127.653.653,0,0,0,0-.124,1.889,1.889,0,0,0-.1-.236.175.175,0,0,0-.009-.022C3.9,8.911,2.006,5.438,5.215,2.065A5.884,5.884,0,0,1,6.765,8.54c-.008.022-.028.084-.034.107a.659.659,0,0,0,1.1.63.712.712,0,0,0,.059-.051c3.139-3.01,6.1-1.99,7.211-1.425A6.164,6.164,0,0,1,7.98,11.165H7.949a.607.607,0,0,0-.14,0,.392.392,0,0,0-.229.06.7.7,0,0,0-.114.061.722.722,0,0,0-.081.082.615.615,0,0,0-.089.108c-.005.009-.014.014-.02.024a14.735,14.735,0,0,0-1.328,7.855,5.831,5.831,0,0,0,5.862,5.029,6.793,6.793,0,0,0,.768-.043,11.255,11.255,0,0,0,2.308-.535c-.316.355-.637.705-.972,1.04a.66.66,0,1,0,.929.933,26.817,26.817,0,0,0,4.31-5.66,32.917,32.917,0,0,0,2.987-9.051c.586-2.77.9-5.078.94-5.408A8.178,8.178,0,0,1,24.1,3.133a3.824,3.824,0,0,1,1.957-1.577,7.443,7.443,0,0,1,4.009.086c1.417.306,3.142.82,5.14,1.414l1.032.306c-.056.167-.132.38-.226.653a4.569,4.569,0,0,1-.8,1.435,3.818,3.818,0,0,1-1.256.989,5.274,5.274,0,0,1-1.93.377,5.945,5.945,0,0,0-2.41.543c-2.786,1.467-3.32,4.868-2.407,7.468l.272.773c1.6,4.543,3.117,8.838,2.246,13.579a8.484,8.484,0,0,1-5.07,6.468,12.773,12.773,0,0,1-4.093.862c-.9.066-1.815.074-2.713.081a13.332,13.332,0,0,0,2.685-4.758.66.66,0,1,0-1.272-.347c-.017.067-1.913,6.768-7.936,6.768-2.106,0-2.363-.354-2.369-.359-.03-.144.132-.433.374-.774l.005-.007c.344-.483.85-1.071,1.244-1.527a18.529,18.529,0,0,0,2.655-3.633.659.659,0,1,0-1.18-.59,17.55,17.55,0,0,1-2.473,3.363c-.4.462-.768.894-1.079,1.3-2.889-.665-4.743-1.924-5.635-3.853A11.593,11.593,0,0,1,2.1,29.813a.68.68,0,0,0-.77-.508.646.646,0,0,0-.52.787,12.94,12.94,0,0,0,.857,2.638c1.012,2.19,3.073,3.688,6.109,4.478a1.511,1.511,0,0,0-.025,1.231c.368.8,1.436,1.135,3.575,1.135a8.324,8.324,0,0,0,5.057-1.645q.594-.011,1.2-.015c1-.007,2.044-.016,3.072-.088a17.249,17.249,0,0,0,2.6-.365l.006,0a23.288,23.288,0,0,0,4.451.791c.594.059,1.145.088,1.661.088,2.066,0,3.5-.47,4.1-1.368a1.593,1.593,0,0,0,.1-1.66A2.038,2.038,0,0,0,31.732,34.3a3.7,3.7,0,0,1-2.082-1.265,10.481,10.481,0,0,0,1.375-3.614c.935-5.091-.709-9.75-2.3-14.257l-.272-.771c-.725-2.067-.348-4.745,1.778-5.864Zm1.5,27.09a.745.745,0,0,1,.667.316.271.271,0,0,1-.028.305c-.334.5-1.721.983-4.53.7-.836-.084-1.578-.183-2.233-.291a9.516,9.516,0,0,0,3.265-2.536,4.5,4.5,0,0,0,2.859,1.5Zm0,0" transform="translate(-0.402 0)"/><path class="e" d="M1.007,346.427a.873.873,0,0,0,.132,0,.718.718,0,0,0,.453-.228.667.667,0,0,0-.051-.914.708.708,0,0,0-.222-.132.659.659,0,0,0-.253-.046.672.672,0,0,0-.462.207.7.7,0,0,0-.171.488.72.72,0,0,0,.226.468l.1.073a.488.488,0,0,0,.123.05.4.4,0,0,0,.121.033Zm0,0" transform="translate(-0.382 -318.435)"/><path class="e" d="M295.391,317.783a.655.655,0,0,0,.338-.094c3.574-2.148,3.618-9.487,3.618-9.8a.66.66,0,0,0-1.319,0c0,1.913-.535,7.2-2.978,8.668a.66.66,0,0,0,.34,1.225Zm0,0" transform="translate(-271.935 -283.485)"/><path class="e" d="M35.378,333.523a.659.659,0,1,0,.187-1.306c-.04-.007-4.05-.655-4.05-7.261a.66.66,0,0,0-1.319,0c0,7.737,5.131,8.56,5.182,8.567Zm0,0" transform="translate(-27.845 -299.232)"/></g></svg>