<svg xmlns="http://www.w3.org/2000/svg" width="44.018" height="44.796" viewBox="0 0 44.018 44.796"><defs><style>.a{fill:#d0ddf0;}.b{fill:#7fa8f6;}.c{fill:#dfe3ee;}.d{fill:#fff;}.e{fill:#428dff;}</style></defs><g transform="translate(0 0)"><path class="a" d="M110.884,168.48s-4.811,4.357-7.8,3.611,0-2.984,0-2.984-3.73-1.492-.746-3.73v.119c-.023-.023-.052-.038-.075-.06-2.85-2.2.82-3.671.82-3.671s-2.984-2.238,0-2.984c2.276-.567,7.289,2.522,8.132,3.312Zm0,0" transform="translate(-92.232 -144.605)"/><path class="b" d="M239.63,386.949c.321,6.051-4.357,9.684-8.207,9.654a11.21,11.21,0,0,1-1.216-.075,8.655,8.655,0,0,0,6.506-5.342A7.1,7.1,0,0,0,237.9,390.1c.582-.679,1.731-2.134,1.731-3.149Zm0,0" transform="translate(-209.787 -352.554)"/><path class="b" d="M229.25,18.462c0,1.88-.91,3.417-1.582,3.372a1.209,1.209,0,0,1-.6-.268,5.934,5.934,0,0,0-.753-.433,5.209,5.209,0,0,0,.694-2.671c-.746-.746-4.476-1.172-5.969-2.663a10.758,10.758,0,0,1-1.291-2.171c-.642-1.067-1.694-3.73-6.17-3.73-.164,0-.328-.679-.5-1.119a7.771,7.771,0,0,1,1.992-.373c.253-.015.5,1.492.746,1.492,4.477,0,5.528,2.663,6.17,3.73a10.774,10.774,0,0,0,1.291,2.171c1.492,1.492,5.222,1.917,5.969,2.663Zm0,0" transform="translate(-194.184 -7.658)"/><path class="c" d="M143.208,21.182a4.806,4.806,0,0,0-.216,1.984,3.477,3.477,0,0,0,1.276,2.492c1.4,1.082,3.365.716,5,1.2a8.211,8.211,0,0,1,2.552,14.474c-1.358,1.007-3.924,1.179-6.364,1.544-3.074.47-5.953,1.246-5.976,4.417-.015,2.454,1.194,4.178,3.723,4.476a.739.739,0,0,0,.127.008,9.493,9.493,0,0,0,6.662-1.664,8.655,8.655,0,0,1-6.506,5.342c-4.26-.492-8.446-3.387-8.461-8.065a7.18,7.18,0,0,1,1.8-4.432c.858-1.112,1.932-2.193,2.857-3.365.3-.388.59-.783.851-1.194a8.177,8.177,0,0,0,.828-1.656,6.1,6.1,0,0,0,.321-1.38,5.951,5.951,0,0,0,.037-.634,7.516,7.516,0,0,0-.179-1.634,9.156,9.156,0,0,0-.343-1.253,14.18,14.18,0,0,0-.724-1.753c-.209-.44-.44-.873-.672-1.3-.306-.567-.619-1.119-.925-1.656-.052-.1-.1-.187-.157-.276-.186-.336-.373-.649-.537-.955a10.66,10.66,0,0,1-1.686-6.215,7.618,7.618,0,0,1,5.469-7.088c.172.44.336,1.119.5,1.119,4.476,0,5.528,2.663,6.17,3.73a10.758,10.758,0,0,0,1.291,2.171c1.492,1.492,5.222,1.917,5.969,2.663a5.209,5.209,0,0,1-.694,2.671c-3.1-1.552-6.923-.485-10.132-1.85-.291-.127-2.037-1.373-1.858-1.925Zm0,0" transform="translate(-123.064 -11.481)"/><path class="c" d="M14.094,111.74a2.611,2.611,0,1,1-2.611-2.611A2.611,2.611,0,0,1,14.094,111.74Zm0,0" transform="translate(-8.125 -99.429)"/><path class="c" d="M62.215,18.293A1.492,1.492,0,1,1,60.723,16.8,1.492,1.492,0,0,1,62.215,18.293Zm0,0" transform="translate(-54.008 -15.307)"/><path class="c" d="M408.586,405.51a2.611,2.611,0,1,1-2.611-2.611A2.611,2.611,0,0,1,408.586,405.51Zm0,0" transform="translate(-367.552 -367.086)"/><path class="c" d="M456.707,337.242a1.492,1.492,0,1,1-1.492-1.492A1.492,1.492,0,0,1,456.707,337.242Zm0,0" transform="translate(-413.435 -305.906)"/><path class="b" d="M262.055,177.662a8.272,8.272,0,0,1-3.327,6.6c-1.358,1.007-3.924,1.179-6.364,1.544a5.48,5.48,0,0,0,.508-.381c1.544-1.32,5.864-6.073,1.589-15.466-.075-.164-.149-.321-.224-.485a10.331,10.331,0,0,1,1.94.314,8.2,8.2,0,0,1,5.879,7.871Zm0,0" transform="translate(-229.974 -154.413)"/><path class="a" d="M265.02,182.634a8.272,8.272,0,0,1-3.327,6.6,8.549,8.549,0,0,1-3.618,1.164c1.544-1.32,5.864-6.073,1.589-15.466a8.2,8.2,0,0,1,5.357,7.7Zm0,0" transform="translate(-235.177 -159.385)"/><path class="d" d="M263.66,60.258a1.492,1.492,0,1,1-1.492-1.492A1.492,1.492,0,0,1,263.66,60.258Zm0,0" transform="translate(-237.547 -53.542)"/><path class="d" d="M262.855,60.2a.746.746,0,0,1-1.425.306,1.51,1.51,0,0,1,.985-.985.746.746,0,0,1,.44.679Zm0,0" transform="translate(-238.234 -54.233)"/><path class="d" d="M104.987,158.976a4.086,4.086,0,0,0-1.883-.113c-2.984.746,0,2.984,0,2.984s-3.671,1.47-.821,3.671c-2.831,2.2.821,3.668.821,3.668s-2.984,2.238,0,2.984a3.947,3.947,0,0,0,1.949-.092c-2.462-.82.29-2.892.29-2.892s-3.651-1.465-.821-3.668c-2.85-2.2.821-3.671.821-3.671s-2.708-2.037-.355-2.871Zm0,0" transform="translate(-92.247 -144.686)"/><path class="d" d="M144.454,55.239a6.476,6.476,0,0,1-.97.216c-4.26-.492-8.446-3.387-8.461-8.065a7.181,7.181,0,0,1,1.8-4.432c.858-1.112,1.932-2.193,2.857-3.365.3-.388.59-.783.851-1.194a8.178,8.178,0,0,0,.828-1.656,6.1,6.1,0,0,0,.321-1.38,5.947,5.947,0,0,0,.037-.634,7.517,7.517,0,0,0-.179-1.634,9.155,9.155,0,0,0-.343-1.253,14.18,14.18,0,0,0-.724-1.753c-.209-.44-.44-.873-.672-1.3-.306-.567-.619-1.119-.925-1.656-.052-.1-.1-.187-.157-.276-.186-.336-.373-.649-.537-.955a10.66,10.66,0,0,1-1.686-6.215,7.618,7.618,0,0,1,5.469-7.088c.112.284.217.672.321.9a7.3,7.3,0,0,0-3.574,6.185,10.66,10.66,0,0,0,1.686,6.215c.164.306.351.619.537.955.052.089.1.179.157.276.306.537.619,1.089.925,1.656.231.425.462.858.672,1.3a14.229,14.229,0,0,1,.724,1.753,9.152,9.152,0,0,1,.343,1.253,7.5,7.5,0,0,1,.179,1.634,5.955,5.955,0,0,1-.037.634,6.119,6.119,0,0,1-.321,1.38,8.177,8.177,0,0,1-.828,1.656c-.261.41-.552.806-.851,1.194-.925,1.172-2,2.253-2.858,3.365a7.18,7.18,0,0,0-1.8,4.432c.015,4.223,3.425,6.991,7.214,7.849Zm0,0" transform="translate(-123.064 -11.481)"/><path class="d" d="M137.085,412.89a12.375,12.375,0,0,1-5-1.123,9.794,9.794,0,0,1-4.021-3.275,8.093,8.093,0,0,1-1.389-4.484h1.492a6.584,6.584,0,0,0,1.128,3.644,9.755,9.755,0,0,0,7.8,3.746Zm0,0" transform="translate(-115.455 -368.097)"/><g transform="translate(0 0)"><path class="e" d="M35.226,68.516a.746.746,0,1,0-1.039-.182A.746.746,0,0,0,35.226,68.516Zm0,0" transform="translate(-31.067 -61.19)"/><path class="e" d="M429.718,311.925a.746.746,0,1,0-1.039-.181A.746.746,0,0,0,429.718,311.925Zm0,0" transform="translate(-390.494 -282.963)"/><path class="e" d="M270.558,67.906a.746.746,0,1,1-.746-.746A.746.746,0,0,1,270.558,67.906Zm0,0" transform="translate(-245.192 -61.19)"/><path class="e" d="M.477,104.092a3.357,3.357,0,1,0,3.358-3.357,3.358,3.358,0,0,0-3.358,3.357Zm3.358-1.865a1.865,1.865,0,1,1-1.865,1.865A1.865,1.865,0,0,1,3.834,102.226Zm0,0" transform="translate(-0.477 -91.78)"/><path class="e" d="M53.078,8.406a2.238,2.238,0,1,0,2.238,2.238A2.238,2.238,0,0,0,53.078,8.406Zm0,2.984a.746.746,0,1,1,.527-.218A.746.746,0,0,1,53.078,11.391Zm0,0" transform="translate(-46.363 -7.659)"/><path class="e" d="M394.969,397.861a3.357,3.357,0,1,0,3.357-3.358A3.357,3.357,0,0,0,394.969,397.861ZM398.326,396a1.865,1.865,0,1,1-1.865,1.865A1.865,1.865,0,0,1,398.326,396Zm0,0" transform="translate(-359.904 -359.437)"/><path class="e" d="M447.57,327.359a2.238,2.238,0,1,0,2.238,2.238A2.238,2.238,0,0,0,447.57,327.359Zm0,2.984a.746.746,0,1,1,.746-.746A.746.746,0,0,1,447.57,330.343Zm0,0" transform="translate(-405.79 -298.261)"/><path class="e" d="M172.019,469.538a.826.826,0,0,0-.263.118.774.774,0,0,0-.211.2.737.737,0,0,0-.117.562.759.759,0,0,0,.358.486.843.843,0,0,0,.6.088l.134-.053a.888.888,0,0,0,.225-.186,1.148,1.148,0,0,0,.081-.127.86.86,0,0,0,.057-.57.763.763,0,0,0-.126-.252A.746.746,0,0,0,172.019,469.538Zm0,0" transform="translate(-156.22 -427.788)"/><path class="e" d="M95.34,13.452c-1.086.272-1.712.783-1.861,1.518A2.487,2.487,0,0,0,94.255,17a2.926,2.926,0,0,0-1.367,1.9,2.344,2.344,0,0,0,.709,1.932,2.352,2.352,0,0,0-.708,1.917,2.921,2.921,0,0,0,1.367,1.908,2.486,2.486,0,0,0-.777,2.033c.149.736.775,1.247,1.861,1.519a3.773,3.773,0,0,0,.912.107c1.865,0,3.985-1.194,5.514-2.269a18.987,18.987,0,0,1-2.445,3.208c-.508.575-1.033,1.168-1.492,1.767a7.983,7.983,0,0,0-1.948,4.891A8.089,8.089,0,0,0,97.272,40.4c.149.229.332.433.5.649a.723.723,0,0,0,1.078.067.78.78,0,0,0,.066-1.026c-.135-.179-.289-.346-.41-.534a6.582,6.582,0,0,1-1.128-3.643,6.342,6.342,0,0,1,1.641-3.977c.431-.558.916-1.108,1.431-1.69.479-.542.975-1.106,1.442-1.7l1.766,1.177a.746.746,0,1,0,.828-1.241l-1.726-1.151a9.1,9.1,0,0,0,.927-1.873l3.224.644a.712.712,0,0,0,.138.011.746.746,0,0,0,.149-1.477L104.04,24a.707.707,0,0,0,0-.236q.021-.256.022-.522a8.375,8.375,0,0,0-.1-1.25.663.663,0,0,0,.06-.586l3.307-1.322a.747.747,0,1,0-.555-1.386l-3.3,1.324a16.632,16.632,0,0,0-.724-1.745l2.4-1.2a.746.746,0,0,0-.667-1.335l-2.42,1.21c-.236-.433-.474-.859-.707-1.268l-.224-.4,1.859-1.239a.746.746,0,1,0-.828-1.241l-1.767,1.178a9.882,9.882,0,0,1-1.55-5.787c0-3.655,3.187-6.316,6.314-6.68l.07.207c.207.615.418,1.251,1.076,1.251,3.638,0,4.7,1.894,5.332,3.026.07.125.135.24.2.342.129.216.245.453.362.691a5.971,5.971,0,0,0,1.045,1.627,10.526,10.526,0,0,0,4.183,1.987,15.2,15.2,0,0,1,1.552.537,3.581,3.581,0,0,1-.817,2.213c-.063-.033-.149-.092-.187-.118-1.951-1.325-4.182-1.448-6.342-1.567a13.661,13.661,0,0,1-4.653-.781,5.6,5.6,0,0,1-1.417-1.2.746.746,0,0,0-1.453-.276,4.843,4.843,0,0,0,1.312,5.3,5.9,5.9,0,0,0,3.146,1.017.731.731,0,0,0,.059.219c2.065,4.13,2.611,7.672,1.624,10.528a7.654,7.654,0,0,1-3.42,4.156c-2.325.353-6.459,1.044-6.491,5.128-.02,2.991,1.576,4.894,4.38,5.222a9.854,9.854,0,0,0,8.514-2.873,8.193,8.193,0,0,1-1.733,2.761,7.341,7.341,0,0,1-5.148,2.383H106.3a11.207,11.207,0,0,1-2.754-.392.78.78,0,0,0-.91.5.722.722,0,0,0,.516.937,12.676,12.676,0,0,0,3.137.448h.051a8.853,8.853,0,0,0,6.231-2.848,10.112,10.112,0,0,0,2.678-7.667v0a.747.747,0,0,0-1.492.088,5.564,5.564,0,0,1-1.552,2.686,8.341,8.341,0,0,1-7.326,2.493c-2.548-.3-3.07-2.191-3.059-3.73.016-2.4,1.971-3.171,5.341-3.681.427-.065.859-.123,1.287-.181,2.126-.29,4.136-.562,5.411-1.507a8.957,8.957,0,0,0-2.788-15.783,10.865,10.865,0,0,0-2.034-.329,5.17,5.17,0,0,1-2.712-.746,2.771,2.771,0,0,1-1-1.983,8.307,8.307,0,0,0,1.044.7,14.975,14.975,0,0,0,5.171.906c2.044.112,3.974.218,5.582,1.311a1.98,1.98,0,0,0,.97.395,1.435,1.435,0,0,0,1.094-.441,5.3,5.3,0,0,0,1.284-3.67.746.746,0,0,0-.219-.527,6.239,6.239,0,0,0-2.4-1.044,9.635,9.635,0,0,1-3.569-1.618,4.712,4.712,0,0,1-.76-1.23c-.136-.277-.272-.55-.422-.8-.054-.09-.11-.192-.172-.3A6.649,6.649,0,0,0,106.718,1.5c-.029-.083-.058-.17-.081-.238-.21-.637-.425-1.3-1.12-1.262-3.929.187-8.172,3.378-8.172,8.207a11.055,11.055,0,0,0,1.2,5.521,5.16,5.16,0,0,0-3.21-.276Zm18.121,4.188a7.461,7.461,0,0,1-.486,11.606,8.023,8.023,0,0,1-3.266,1.017,9.173,9.173,0,0,0,1.93-3.212c1.083-3.09.607-6.806-1.376-11.042.128.027.264.043.386.079a7.511,7.511,0,0,1,2.81,1.552ZM95.7,26.762c-.6-.149-.753-.329-.76-.366-.045-.224.473-.879,1.028-1.3a.746.746,0,0,0-.172-1.289c-.419-.167-1.359-.715-1.431-1.256-.042-.322.263-.679.563-.947a.728.728,0,0,0,.373-.192.805.805,0,0,0-.382-1.367c-.291-.259-.6-.618-.558-.94.066-.486.9-1.035,1.432-1.254a.746.746,0,0,0,.17-1.289c-.544-.408-1.072-1.075-1.027-1.3.008-.036.166-.218.76-.366,1.865-.46,3.626.883,4.375,1.567a30.031,30.031,0,0,1,1.765,3.471L98.465,18a.746.746,0,0,0-.74,1.3l3.685,2.105-3.52,1.007a.746.746,0,0,0,.2,1.463.72.72,0,0,0,.205-.029l4.234-1.209c.018.2.04.407.04.612,0,.107-.02.207-.027.312-1.457,1.25-4.845,3.7-6.839,3.2Zm0,0" transform="translate(-84.663 0)"/></g></g></svg>