<?xml version="1.0" standalone="no"?>
<!DOCTYPE svg PUBLIC "-//W3C//DTD SVG 20010904//EN"
 "http://www.w3.org/TR/2001/REC-SVG-20010904/DTD/svg10.dtd">
<svg version="1.0" xmlns="http://www.w3.org/2000/svg"
 width="946.000000pt" height="980.000000pt" viewBox="0 0 946.000000 980.000000"
 preserveAspectRatio="xMidYMid meet">
<metadata>
Created by potrace 1.16, written by Peter Selinger 2001-2019
</metadata>
<g transform="translate(0.000000,980.000000) scale(0.100000,-0.100000)"
fill="#000000" stroke="none">
<path d="M4460 9794 c-539 -64 -1156 -321 -1565 -651 -125 -100 -358 -339
-448 -458 -76 -100 -167 -276 -194 -375 -26 -97 -25 -363 2 -440 12 -34 27
-56 37 -58 10 -2 100 33 200 79 372 166 703 277 1083 363 721 161 1303 181
1980 66 516 -88 935 -218 1490 -464 106 -47 131 -47 151 1 29 68 46 184 40
269 -9 121 -40 226 -106 359 -182 365 -590 739 -1071 981 -157 78 -268 124
-449 184 -316 105 -521 139 -885 145 -126 2 -246 1 -265 -1z m406 -94 c101
-26 170 -68 250 -153 112 -118 150 -223 142 -393 -6 -120 -25 -179 -87 -270
-57 -84 -155 -161 -261 -205 -71 -30 -78 -31 -185 -27 -136 6 -220 35 -320
111 -252 190 -273 583 -42 804 139 134 316 180 503 133z"/>
<path d="M4415 8215 c-559 -46 -1096 -173 -1639 -389 -241 -96 -359 -155 -345
-172 30 -36 394 -184 714 -290 550 -181 1042 -264 1575 -264 489 0 951 70
1454 221 351 105 866 307 866 340 0 24 -408 192 -700 289 -646 215 -1351 312
-1925 265z"/>
<path d="M2676 7228 c-3 -13 -9 -96 -14 -186 l-8 -162 -51 -53 c-85 -87 -115
-171 -132 -365 -39 -435 144 -938 477 -1317 74 -84 108 -146 157 -285 154
-438 431 -799 800 -1043 223 -147 456 -230 719 -257 537 -56 1123 267 1494
820 77 116 180 322 227 455 48 139 82 208 131 266 172 207 222 278 302 429
159 298 236 643 211 938 -16 187 -48 273 -132 360 l-52 52 -10 182 c-6 119
-14 183 -21 185 -7 2 -124 -33 -260 -77 -514 -168 -803 -237 -1204 -286 -182
-22 -666 -30 -886 -15 -537 38 -1065 147 -1551 323 -90 32 -170 58 -178 58 -8
0 -17 -10 -19 -22z"/>
<path d="M2955 4121 c-721 -281 -1403 -588 -1680 -756 -387 -234 -665 -550
-891 -1014 -165 -336 -290 -734 -345 -1096 -24 -154 -37 -506 -20 -547 22 -58
185 -131 526 -237 1019 -316 2659 -489 4440 -468 1382 17 2501 125 3395 327
485 110 942 260 1021 336 47 45 53 79 46 274 -19 545 -204 1151 -510 1666 -95
159 -206 304 -332 430 -327 330 -732 538 -2139 1100 -61 24 -117 44 -125 44
-18 -1 -118 -123 -176 -215 -64 -100 -108 -198 -448 -1000 -107 -253 -212
-496 -232 -540 l-37 -80 -47 51 c-45 49 -160 195 -510 647 -84 108 -157 197
-161 197 -4 0 -76 -88 -159 -195 -83 -107 -218 -282 -300 -387 -82 -106 -174
-220 -204 -253 l-54 -60 -20 40 c-12 22 -85 191 -163 375 -78 184 -194 457
-257 605 -145 340 -249 564 -294 635 -55 85 -138 180 -157 180 -9 0 -84 -27
-167 -59z m-233 -381 c51 -66 97 -120 103 -120 5 0 70 21 143 46 74 25 136 44
139 41 6 -7 -9 -35 -83 -153 -35 -55 -64 -105 -64 -111 0 -6 26 -47 58 -90 62
-84 102 -146 102 -158 0 -11 -68 2 -157 29 -43 14 -94 27 -113 31 -34 6 -36 4
-75 -57 -74 -115 -126 -181 -136 -171 -6 6 -13 75 -16 155 l-6 145 -86 28
c-132 42 -191 66 -191 75 0 8 89 47 209 90 l64 23 -5 114 c-6 123 0 203 13
203 5 0 50 -54 101 -120z m4130 78 c0 -24 0 -95 -2 -159 l-2 -116 63 -23 c118
-42 209 -82 209 -90 0 -9 -75 -39 -191 -76 l-86 -27 -6 -144 c-4 -79 -9 -149
-13 -154 -9 -15 -31 7 -87 91 -98 147 -102 149 -257 100 -112 -35 -130 -37
-130 -11 0 16 56 102 136 207 l25 33 -64 88 c-70 95 -105 158 -94 170 4 4 35
-4 70 -16 34 -13 97 -35 140 -50 l79 -26 16 21 c10 11 52 67 95 122 42 56 82
102 87 102 6 0 11 -19 12 -42z m823 -671 l10 -152 119 -42 c66 -23 126 -49
134 -57 13 -12 11 -16 -15 -30 -16 -8 -76 -29 -132 -45 -56 -17 -106 -33 -112
-36 -5 -4 -9 -63 -9 -133 0 -201 -6 -206 -101 -78 -88 116 -106 136 -122 136
-8 0 -72 -16 -141 -36 -70 -20 -130 -34 -133 -31 -6 7 23 56 102 170 35 50 52
84 48 95 -4 9 -37 64 -75 121 -37 58 -68 111 -68 119 0 18 35 10 173 -39 60
-22 112 -39 115 -39 4 0 48 53 97 119 50 65 92 117 95 114 3 -2 10 -73 15
-156z m-5785 46 c46 -60 87 -112 91 -117 4 -4 68 12 141 38 74 25 140 46 146
46 23 0 11 -27 -63 -140 -41 -63 -75 -117 -75 -121 0 -3 25 -41 54 -85 80
-115 109 -164 103 -171 -3 -3 -63 11 -133 31 -69 20 -134 36 -143 36 -10 0
-50 -44 -96 -106 -44 -58 -87 -110 -96 -115 -24 -12 -29 14 -29 163 0 70 -4
129 -9 133 -6 3 -56 19 -112 36 -56 16 -116 37 -132 45 -26 14 -28 18 -15 30
8 8 68 34 134 57 l119 42 6 120 c4 66 7 135 8 153 0 17 5 32 10 32 4 0 46 -48
91 -107z"/>
</g>
</svg>
