<svg xmlns="http://www.w3.org/2000/svg" width="70.066" height="87.583" viewBox="0 0 70.066 87.583"><defs><style>.a{fill:#cad9fc;}.b{fill:#e8edfc;}.c{fill:#a4c2f7;}.d{fill:#7facfa;}.e{fill:#fff;}.f{fill:#428dff;}</style></defs><g transform="translate(0 0)"><path class="a" d="M76.176,335.11A13.7,13.7,0,0,1,62.47,348.817L57.2,351.736H28.006l-5.269-2.919a13.71,13.71,0,0,1-1.182-27.37l11.736-1.022H51.916l11.736,1.022A13.719,13.719,0,0,1,76.176,335.11Zm0,0" transform="translate(-7.57 -265.614)"/><path class="b" d="M71.8,335.11a13.7,13.7,0,0,1-13.706,13.706l-5.269,2.919H28.007l-5.269-2.919a13.71,13.71,0,0,1-1.182-27.37l11.736-1.022H47.538l11.736,1.022A13.718,13.718,0,0,1,71.8,335.11Zm0,0" transform="translate(-7.571 -265.614)"/><path class="a" d="M109.864,429.587v5.839l-.5.722a13.687,13.687,0,0,1-4.445.738L99.646,439.8H70.452l-5.269-2.919a13.683,13.683,0,0,1-4.444-.738l-.5-.722v-5.839a2.919,2.919,0,0,1,2.919-2.919h43.791a2.919,2.919,0,0,1,2.919,2.919Zm0,0" transform="translate(-50.016 -353.682)"/><path class="c" d="M166,283.994a16.6,16.6,0,0,1-8.759,4.277,9.528,9.528,0,0,1-1.459.1,16.122,16.122,0,0,1-10.218-4.379,19.168,19.168,0,0,0,.9-2.117,30.546,30.546,0,0,0,1.635-6.627c.073-.467.132-.89.175-1.3l14.991-.029a34.181,34.181,0,0,0,1.825,7.955A19.176,19.176,0,0,0,166,283.994Zm0,0" transform="translate(-120.751 -227.065)"/><path class="a" d="M161.624,291.673a17.1,17.1,0,0,1-4.379,2.963,9.527,9.527,0,0,1-1.459.1,16.122,16.122,0,0,1-10.218-4.379,19.175,19.175,0,0,0,.9-2.117,30.549,30.549,0,0,0,1.635-6.627l10.787-.014a34.145,34.145,0,0,0,1.825,7.955A19.18,19.18,0,0,0,161.624,291.673Zm0,0" transform="translate(-120.752 -233.431)"/><path class="b" d="M121.092,409.6v11.677a4.379,4.379,0,0,1-4.379,4.379H81.679a4.379,4.379,0,0,1-4.379-4.379V409.6" transform="translate(-64.163 -339.536)"/><path class="c" d="M125.244,36.27A78.559,78.559,0,0,0,126.7,24.591c0-4.379-2.919-8.758-7.3-13.137a7.206,7.206,0,0,1-1.46,4.379s0-2.919-4.379-5.839a4.516,4.516,0,0,1-1.459,2.919,10.109,10.109,0,0,0-5.839-4.379,10.11,10.11,0,0,0-5.839,4.379,4.52,4.52,0,0,1-1.46-2.919c-4.379,2.919-4.379,5.839-4.379,5.839a7.206,7.206,0,0,1-1.46-4.379c-4.379,4.379-7.3,8.758-7.3,13.137a78.649,78.649,0,0,0,1.46,11.678Zm0,0" transform="translate(-71.235 -7.075)"/><path class="d" d="M275.253,38.738a59.467,59.467,0,0,1-1.973,11.678h-3.669a68.27,68.27,0,0,0,1.7-11.678c0-3.707-2.426-7.415-6.272-11.123a7.172,7.172,0,0,0,.355-2.014c5.918,4.379,9.863,8.758,9.863,13.137Zm0,0" transform="translate(-219.784 -21.222)"/><path class="a" d="M127.926,146.1c1.008-.8,4.394-3.094,4.394,3.211,0,6-3.825,7.138-5.284,7.357H99.651c-1.46-.219-5.284-1.358-5.284-7.357,0-6.306,3.386-4.015,4.393-3.211Zm0,0" transform="translate(-78.31 -120.223)"/><path class="a" d="M149.075,90.682c0,.555,0,1.095-.015,1.62a44.242,44.242,0,0,1-1.124,10.509,24.456,24.456,0,0,1-1.606,4.482c-2.073,4.379-5.678,8.758-11.853,8.758a12.965,12.965,0,0,1-2.175-.19h-.029c-4.875-.9-7.867-4.715-9.678-8.568A24.391,24.391,0,0,1,121,102.812a44.481,44.481,0,0,1-1.11-10.509c-.015-.526-.015-1.066-.015-1.62a20.61,20.61,0,0,1,1.767-9.24,11.3,11.3,0,0,1,.759-1.314,26.241,26.241,0,0,0,9.824,2.277.159.159,0,0,0,.116,0c.686.058,1.387.073,2.132.073a32.567,32.567,0,0,0,8.451-1.036,21.926,21.926,0,0,0,3.62-1.314c1.591,2.35,2.525,5.751,2.525,10.554Zm0,0" transform="translate(-99.444 -66.422)"/><path class="b" d="M144.7,97.048c0,.555,0,1.095-.015,1.62a44.312,44.312,0,0,1-1.124,10.51,24.5,24.5,0,0,1-1.606,4.482c-1.81,3.824-4.8,7.664-9.649,8.568h-.029c-4.875-.9-7.867-4.715-9.678-8.568A24.391,24.391,0,0,1,121,109.178a44.481,44.481,0,0,1-1.11-10.51c-.015-.526-.015-1.066-.015-1.62a20.61,20.61,0,0,1,1.767-9.24,32.567,32.567,0,0,0,8.451,1.036c.744,0,1.445-.015,2.132-.073a.159.159,0,0,0,.116,0c.686.058,1.387.073,2.132.073a32.567,32.567,0,0,0,8.451-1.036,20.61,20.61,0,0,1,1.767,9.24Zm0,0" transform="translate(-99.444 -72.788)"/><path class="e" d="M17.832,103.52c.146.056.3.1.448.149l.013.018c.131.045.268.078.4.12.156.048.312.1.47.14.232.062.467.114.7.164.152.033.3.069.456.1.2.036.408.061.613.088a4.364,4.364,0,0,0,4.151,3.049h4.379a4.363,4.363,0,0,1-4.151-3.048c-.206-.027-.411-.052-.613-.088-.154-.028-.3-.063-.456-.1-.237-.051-.472-.1-.7-.165-.159-.043-.315-.092-.47-.14-.134-.041-.27-.075-.4-.12l-.013-.019c-.148-.051-.3-.092-.447-.148a13.713,13.713,0,0,1,3.722-26.465L37.67,76.034A30.586,30.586,0,0,0,39.3,69.407c.073-.467.131-.89.175-1.3h.035A17.659,17.659,0,0,1,35.1,62.094a24.43,24.43,0,0,1-1.574-4.423H33.29c-1.451-.218-5.235-1.349-5.279-7.255h0a78.648,78.648,0,0,1-1.459-11.678,15.636,15.636,0,0,1,3.92-9.337,8.119,8.119,0,0,1-1-3.8c-4.379,4.379-7.3,8.758-7.3,13.137a78.648,78.648,0,0,0,1.46,11.678h0c.045,5.906,3.829,7.037,5.28,7.255h.237a24.38,24.38,0,0,0,1.574,4.423,17.656,17.656,0,0,0,4.414,6.014H35.1c-.043.409-.1.832-.175,1.3a30.548,30.548,0,0,1-1.635,6.627L21.555,77.055a13.713,13.713,0,0,0-3.723,26.465Zm0,0" transform="translate(-7.57 -21.222)"/><path class="f" d="M127.491,110.319c-5.686,0-10.252-3.319-13.2-9.6A25.811,25.811,0,0,1,112.6,95.98a45.626,45.626,0,0,1-1.155-10.854c-.014-.515-.014-1.068-.014-1.636,0-4.893.908-8.612,2.776-11.372a1.46,1.46,0,1,1,2.418,1.636,17.433,17.433,0,0,0-2.275,9.736c0,.541,0,1.068.013,1.58a42.985,42.985,0,0,0,1.066,10.19,22.88,22.88,0,0,0,1.495,4.215c2.473,5.26,6.026,7.925,10.564,7.925,4.5,0,8.045-2.666,10.534-7.923a22.875,22.875,0,0,0,1.51-4.218,42.477,42.477,0,0,0,1.079-10.166c.015-.536.015-1.062.015-1.6a17.431,17.431,0,0,0-2.275-9.735,1.46,1.46,0,1,1,2.418-1.636c1.868,2.759,2.776,6.479,2.776,11.371,0,.568,0,1.122-.015,1.66a45.128,45.128,0,0,1-1.169,10.831,25.774,25.774,0,0,1-1.7,4.746c-2.97,6.276-7.525,9.593-13.172,9.593Zm0,0" transform="translate(-92.457 -59.229)"/><path class="f" d="M92.579,151.068a1.407,1.407,0,0,1-.218-.016c-1.532-.23-6.528-1.546-6.528-8.8,0-1.089,0-4.4,2.181-5.453,1.289-.62,2.915-.229,4.582,1.1a1.46,1.46,0,0,1-1.819,2.283c-.81-.645-1.372-.788-1.5-.75,0,0-.522.454-.522,2.821,0,4.617,2.532,5.686,4.042,5.914a1.459,1.459,0,0,1-.215,2.9Zm0,0" transform="translate(-71.236 -113.16)"/><path class="f" d="M278.269,151.066a1.46,1.46,0,0,1-.215-2.9c1.509-.227,4.042-1.3,4.042-5.914,0-2.37-.527-2.822-.533-2.826-.129-.041-.682.111-1.491.756a1.46,1.46,0,1,1-1.819-2.283c1.669-1.328,3.3-1.721,4.581-1.1,2.181,1.05,2.181,4.364,2.181,5.453,0,7.255-5,8.57-6.526,8.8A1.422,1.422,0,0,1,278.269,151.066Zm0,0" transform="translate(-229.546 -113.157)"/><path class="e" d="M14.61,320.807A12.255,12.255,0,0,0,3.482,331.787c-.039.408-.058.818-.062,1.228H.5c0-.507.027-1.014.077-1.518a15.175,15.175,0,0,1,13.782-13.6Zm0,0" transform="translate(-0.5 -263.519)"/><g transform="translate(0 0)"><path class="f" d="M41.477,321.847a1.537,1.537,0,0,0,1.946.486,12.346,12.346,0,0,1,4.946-1.527l-.251-2.909a15.264,15.264,0,0,0-6.128,1.892,1.411,1.411,0,0,0-.513,2.057Zm0,0" transform="translate(-34.26 -263.519)"/><path class="f" d="M.5,385.5H3.419c0-.41.023-.82.062-1.228a12.7,12.7,0,0,1,.2-1.288,1.543,1.543,0,0,0-1.054-1.709,1.406,1.406,0,0,0-1.8,1.111,15.494,15.494,0,0,0-.248,1.6c-.049.5-.072,1.011-.077,1.518Zm0,0" transform="translate(-0.5 -315.999)"/><path class="f" d="M18.563,352.5a1.5,1.5,0,0,0,.253-1l-.057-.266a1.226,1.226,0,0,0-.114-.269,1.01,1.01,0,0,0-.14-.239,2.255,2.255,0,0,0-.2-.218,1.319,1.319,0,0,0-1.635-.148,1.58,1.58,0,0,0-.748,1.587,1.406,1.406,0,0,0,.245.529,1.382,1.382,0,0,0,.418.384,1.685,1.685,0,0,0,1.1.184,1.481,1.481,0,0,0,.88-.542Zm0,0" transform="translate(-13.271 -290.25)"/><path class="f" d="M75.183,315.828a1.46,1.46,0,0,1-.126-2.914l11.736-1.022a1.46,1.46,0,0,1,.254,2.908l-11.736,1.022A1.2,1.2,0,0,1,75.183,315.828Zm0,0" transform="translate(-61.2 -258.535)"/><path class="f" d="M13.859,414.233a1.3,1.3,0,0,1-.191-.012A15.178,15.178,0,0,1,.5,399.2a1.46,1.46,0,1,1,2.919,0,12.251,12.251,0,0,0,10.626,12.128,1.46,1.46,0,0,1-.186,2.907Zm0,0" transform="translate(-0.5 -329.701)"/><path class="f" d="M265.138,343.081a1.46,1.46,0,0,1-.186-2.907,12.245,12.245,0,0,0-.569-24.337l-11.734-1.022a1.46,1.46,0,0,1,.254-2.908l11.736,1.022a15.164,15.164,0,0,1,.69,30.14,1.3,1.3,0,0,1-.191.012Zm0,0" transform="translate(-208.43 -258.549)"/><path class="f" d="M109.637,434.19H74.6a5.845,5.845,0,0,1-5.839-5.839v-8.758a1.46,1.46,0,1,1,2.919,0v8.758A2.922,2.922,0,0,0,74.6,431.27h35.033a2.922,2.922,0,0,0,2.919-2.919v-8.758a1.46,1.46,0,1,1,2.919,0v8.758A5.845,5.845,0,0,1,109.637,434.19Zm0,0" transform="translate(-57.088 -346.607)"/><path class="f" d="M148.712,282.644a17.5,17.5,0,0,1-11.25-4.807,1.459,1.459,0,0,1-.268-1.7,17.757,17.757,0,0,0,.835-1.956,31.774,31.774,0,0,0,1.728-7.581,1.46,1.46,0,0,1,2.9.318,34.669,34.669,0,0,1-1.9,8.285c-.163.442-.322.847-.483,1.221a12.435,12.435,0,0,0,16.864,0c-.163-.379-.324-.787-.49-1.24a35.093,35.093,0,0,1-1.9-8.29,1.46,1.46,0,1,1,2.9-.337,32.25,32.25,0,0,0,1.741,7.609,17.576,17.576,0,0,0,.839,1.968,1.459,1.459,0,0,1-.268,1.7,17.5,17.5,0,0,1-11.25,4.807Zm0,0" transform="translate(-113.679 -219.876)"/><path class="f" d="M118.173,27.736a1.46,1.46,0,0,1-1.386-1.92,30.594,30.594,0,0,0,1.385-8.3c0-2.98-1.61-6.274-4.907-10.019a5.973,5.973,0,0,1-1.36,2.293,1.46,1.46,0,0,1-2.492-1.032,5.721,5.721,0,0,0-2.177-3.425,6.943,6.943,0,0,1-1.171,1.538,1.46,1.46,0,0,1-2.337-.38A8.539,8.539,0,0,0,99.2,3.009a8.526,8.526,0,0,0-4.54,3.5,1.469,1.469,0,0,1-2.331.367,6.963,6.963,0,0,1-1.171-1.538A5.675,5.675,0,0,0,88.978,8.8a1.488,1.488,0,0,1-.935,1.306,1.453,1.453,0,0,1-1.556-.311A5.956,5.956,0,0,1,85.126,7.5c-3.3,3.745-4.907,7.039-4.907,10.019a30.618,30.618,0,0,0,1.385,8.3,1.46,1.46,0,0,1-2.77.922A33.063,33.063,0,0,1,77.3,17.517c0-4.4,2.454-8.9,7.726-14.169A1.46,1.46,0,0,1,87.519,4.38a5.872,5.872,0,0,0,.038.593,13.677,13.677,0,0,1,3.531-3.267,1.46,1.46,0,0,1,2.27,1.214,1.954,1.954,0,0,0,.09.409A12.88,12.88,0,0,1,98.734.076a1.465,1.465,0,0,1,.923,0,12.892,12.892,0,0,1,5.285,3.251,1.913,1.913,0,0,0,.093-.441,1.489,1.489,0,0,1,.8-1.25,1.453,1.453,0,0,1,1.466.07,13.676,13.676,0,0,1,3.531,3.267c.026-.248.037-.458.039-.6a1.461,1.461,0,0,1,2.492-1.028c5.271,5.271,7.726,9.773,7.726,14.169a33.039,33.039,0,0,1-1.535,9.221,1.459,1.459,0,0,1-1.384,1Zm0,0" transform="translate(-64.163 -0.001)"/><path class="f" d="M139.772,76.882a29.329,29.329,0,0,1-12.707-2.5,1.46,1.46,0,0,1,1.27-2.629,26.66,26.66,0,0,0,11.437,2.205,26.673,26.673,0,0,0,11.437-2.2,1.46,1.46,0,0,1,1.27,2.629,29.323,29.323,0,0,1-12.707,2.494Zm0,0" transform="translate(-104.739 -59.366)"/></g></g></svg>