<svg id="Capa_1" enable-background="new 0 0 512 512" height="512" viewBox="0 0 512 512" width="512" xmlns="http://www.w3.org/2000/svg"><g><g><path d="m167.467 80.048c9.367-40.142 45.45-70.048 88.533-70.048 43.238 0 79.424 30.121 88.633 70.48" fill="#fff7bf"/><path d="m158.12 164.533c-23.427-10.215-37.827-24.088-37.827-39.37 0-31.391 60.758-56.839 135.706-56.839s135.706 25.448 135.706 56.839c0 14.759-13.431 28.205-35.454 38.309" fill="#fff2a0"/><path d="m159.362 141.468v29.909h-7.673c-11.912 0-21.569 9.657-21.569 21.569 0 11.912 9.657 21.569 21.569 21.569h9.8c8.097 37.872 38.486 67.513 76.804 74.594v31.34h41.18v-32.63c35.339-8.942 62.827-37.583 70.805-73.305h10.034c11.912 0 21.569-9.657 21.569-21.569 0-11.912-9.657-21.569-21.569-21.569h-7.679v-25.654" fill="#ffdcd5"/><path d="m296.322 117.93c5.09 1.15 10.41 2.78 15.77 4.9 1.12.44 2.28.91 3.47 1.41 11.02 4.63 24.96 11.61 37.07 18.96v32.81c-13.805-.748-36.424-19.806-53.142-31.971" fill="#a7bdcd"/><path d="m303.882 124.787c0 41.106-75.55 38.683-106.89 38.683h-37.63v-28.21c36.01-29.111 144.52-27.324 144.52-10.473z" fill="#a7bdcd"/><path d="m120.794 502v-156.251c0-13.972 11.327-25.299 25.299-25.299h219.814c13.972 0 25.299 11.327 25.299 25.299v156.251" fill="#d1a184"/><path d="m256 360.695-40.335-40.245h80.67z" fill="#fff2a0"/><path d="m120.794 405.452h46.957v96.548h-46.957z" fill="#ffdcd5"/><path d="m344.249 405.452h46.957v96.548h-46.957z" fill="#ffdcd5"/><g fill="#fff2a0"><path d="m167.751 390.923h56.28v49.059h-56.28z"/><path d="m287.968 390.923h56.28v49.059h-56.28z"/></g></g><g><path d="m365.907 310.45h-76.435v-15.155c32.552-10.938 58.396-37.645 68.501-70.779h2.338c17.407 0 31.568-14.162 31.568-31.569 0-12.227-6.987-22.852-17.177-28.094 17.534-11.177 27.003-24.944 27.003-39.691 0-19.473-16.295-37.021-45.884-49.415-.757-.317-1.522-.63-2.293-.939-5.469-20.523-17.51-39.056-34.177-52.488-17.856-14.393-40.356-22.32-63.351-22.32-22.91 0-45.343 7.873-63.167 22.17-16.755 13.439-28.875 32.039-34.363 52.638-.771.309-1.535.622-2.292.939-29.589 12.394-45.884 29.942-45.884 49.415 0 14.787 9.452 28.519 27 39.692-10.188 5.242-17.173 15.867-17.173 28.092 0 17.407 14.161 31.569 31.568 31.569h2.032c5.147 17.411 14.682 33.192 27.865 46.013 13.156 12.793 29.17 21.88 46.706 26.568v13.354h-82.199c-19.464 0-35.299 15.835-35.299 35.299v156.251c0 5.522 4.478 10 10 10h96.507c5.522 0 10-4.478 10-10s-4.478-10-10-10h-39.55v-42.019h46.28c5.522 0 10-4.478 10-10v-49.059c0-5.522-4.478-10-10-10h-56.28c-5.522 0-10 4.478-10 10v4.529h-26.957v-49.703c0-8.436 6.863-15.299 15.299-15.299h65.436l37.407 37.324c1.952 1.947 4.508 2.921 7.063 2.921s5.111-.974 7.063-2.921l37.407-37.324h65.436c8.436 0 15.299 6.863 15.299 15.299v49.703h-26.957v-4.529c0-5.522-4.478-10-10-10h-56.28c-5.522 0-10 4.478-10 10v49.059c0 5.522 4.478 10 10 10h46.28v42.019h-26.536c-5.522 0-10 4.478-10 10s4.478 10 10 10h83.493c5.522 0 10-4.478 10-10v-156.251c.002-19.464-15.833-35.299-35.297-35.299zm-188.156 90.473h36.28v29.059h-36.28zm-20 14.529v76.548h-26.957v-76.548zm98.249-395.452c32.379 0 60.708 18.699 73.606 47.05-22.009-5.687-47.293-8.727-73.606-8.727-26.31 0-51.592 3.039-73.598 8.725 12.912-28.338 41.273-47.048 73.598-47.048zm-92.096 74.195c24.437-10.235 57.144-15.872 92.096-15.872s67.659 5.637 92.096 15.872c21.046 8.814 33.61 20.391 33.61 30.967 0 7.895-6.821 16.243-19.073 23.673v-3.112c0-.026-.001-.051-.001-.076v-2.447c0-3.494-1.824-6.735-4.811-8.549-11.74-7.126-26.09-14.465-38.387-19.631-1.266-.532-2.499-1.032-3.664-1.489-5.503-2.177-11.096-3.931-16.633-5.215-14.204-5.166-40.109-7.026-67.904-4.729-20.218 1.671-57.255 6.998-78.158 23.896-2.348 1.898-3.713 4.757-3.713 7.776v13.544c-12.139-7.415-19.068-15.838-19.068-23.642 0-10.575 12.564-22.151 33.61-30.966zm5.458 46.17c13.918-8.978 38.938-15.324 68.414-17.205 27.486-1.753 46.572 1.134 54.228 3.791.462.22.946.407 1.449.558.084.036.166.073.246.108-.521 3.867-2.167 7.088-5.07 9.98-16.195 16.138-63.743 15.965-86.609 15.885-1.776-.007-3.457-.013-5.027-.013h-27.63v-13.104zm143.491-6.412c9.529 4.071 20.265 9.469 29.779 14.951v13.197c-8.832-4.817-19.819-13.091-27.974-19.232-1.295-.975-2.561-1.928-3.804-2.859.841-1.945 1.508-3.965 1.999-6.057zm-72.744 145.322c-34.501-6.375-61.522-32.616-68.842-66.851-.986-4.612-5.063-7.909-9.779-7.909h-9.8c-6.379 0-11.568-5.19-11.568-11.569s5.189-11.569 11.568-11.569h7.674c4.805 0 8.818-3.389 9.78-7.907h27.85c1.548 0 3.205.006 4.955.013 2.128.007 4.358.016 6.676.016 27.754 0 67.824-1.152 89.703-17.884 1.396 1.044 2.829 2.123 4.301 3.231 17.213 12.963 35.012 26.366 49.464 27.149.181.01.361.015.542.015 2.551 0 5.014-.977 6.876-2.74.594-.563 1.111-1.191 1.544-1.868 6.035.384 10.827 5.415 10.827 11.545 0 6.379-5.189 11.569-11.568 11.569h-10.034c-4.683 0-8.738 3.25-9.76 7.82-7.15 32.015-32.075 57.839-63.498 65.79-4.438 1.123-7.547 5.116-7.547 9.694v22.63h-21.181v-21.341c0-4.822-3.441-8.957-8.183-9.834zm15.891 67.294-16.154-16.119h32.309zm41.969 83.412v-29.059h36.28v29.059zm56.28 62.019v-76.548h26.957v76.548z"/><path d="m289.039 212.814c5.522 0 10-4.478 10-10v-9.868c0-5.522-4.478-10-10-10s-10 4.478-10 10v9.868c0 5.523 4.478 10 10 10z"/><path d="m222.961 182.946c-5.522 0-10 4.478-10 10v9.868c0 5.522 4.478 10 10 10s10-4.478 10-10v-9.868c0-5.522-4.478-10-10-10z"/><path d="m258.298 252.957c5.522 0 10-4.478 10-10s-4.478-10-10-10h-4.596c-5.522 0-10 4.478-10 10s4.478 10 10 10z"/><path d="m271.92 498.17c-1.657-3.981-5.811-6.516-10.117-6.125-4.136.375-7.688 3.353-8.768 7.366-1.07 3.978.491 8.317 3.833 10.72 3.386 2.435 8.084 2.47 11.508.094 3.837-2.663 5.313-7.743 3.544-12.055z"/></g></g></svg>