<svg xmlns="http://www.w3.org/2000/svg" width="45" height="45" viewBox="0 0 45 45"><defs><style>.a{fill:#dfe3ee;stroke:#428dff;stroke-width:2px;}</style></defs><g transform="translate(1 1)"><path class="a" d="M82.4,232v3.793a4.3,4.3,0,0,1-2.377,3.847l-4.79,2.394H55.167l-4.79-2.395A4.3,4.3,0,0,1,48,235.793V232" transform="translate(-43.7 -211.217)"/><path class="a" d="M37.267,120h1.315a4.418,4.418,0,0,1,2.875,7.773L27.951,139.35h-12.9L1.543,127.772A4.418,4.418,0,0,1,4.419,120H5.734" transform="translate(-0.001 -109.25)"/><path class="a" d="M83.234,72h.428a5.306,5.306,0,0,1,4.143,8.62L77.5,93.5H67.467l-10.3-12.88A5.306,5.306,0,0,1,61.306,72h.428" transform="translate(-50.984 -65.55)"/><path class="a" d="M135.767,32h.358a5.375,5.375,0,0,1,4.961,7.442L134.333,55.65h-7.167l-6.753-16.208A5.375,5.375,0,0,1,125.375,32h.358" transform="translate(-109.25 -29.133)"/><path class="a" d="M187.583,26.517,184,5.733V2.867A2.867,2.867,0,0,1,186.867,0h4.3a2.867,2.867,0,0,1,2.867,2.867V5.733L190.45,26.517" transform="translate(-167.517)"/><path class="a" d="M28.2,339.566c8.593.844,14.8,3.27,14.8,6.131,0,3.563-9.626,6.45-21.5,6.45S0,349.259,0,345.7c0-2.86,6.206-5.286,14.8-6.131" transform="translate(0 -309.146)"/><path class="a" d="M174.333,295.167A7.167,7.167,0,1,1,167.167,288,7.167,7.167,0,0,1,174.333,295.167Zm0,0" transform="translate(-145.667 -262.2)"/><path class="a" d="M21.5,392.6c11.874,0,21.5-2.887,21.5-6.45l-4.653,1.269a25.008,25.008,0,0,1-15.36-.712l-2.975-1.116a25.011,25.011,0,0,0-15.359-.711L0,386.15c0,3.563,9.626,6.45,21.5,6.45Zm0,0" transform="translate(0 -349.6)"/><path class="a" d="M245.017,317.017h-1.433A3.588,3.588,0,0,0,240,313.433V312A5.023,5.023,0,0,1,245.017,317.017Zm0,0" transform="translate(-218.5 -284.05)"/></g></svg>